<?xml version="1.0" standalone="no"?><!DOCTYPE svg PUBLIC "-//W3C//DTD SVG 1.1//EN" "http://www.w3.org/Graphics/SVG/1.1/DTD/svg11.dtd"><svg t="1629971942302" class="icon" viewBox="0 0 1024 1024" version="1.1" xmlns="http://www.w3.org/2000/svg" p-id="7663" xmlns:xlink="http://www.w3.org/1999/xlink" width="128" height="128"><defs><style type="text/css"></style></defs><path d="M494.3872 407.79776v81.53088h25.1904c31.58016 0 50.50368-12.55424 50.50368-37.64224s-18.92352-43.88864-50.50368-43.88864h-25.1904zM822.39488 301.056V62.73024c0-37.64224-25.1904-62.73024-63.05792-62.73024H254.5664C222.98624 0 191.52896 25.088 191.52896 62.73024v232.16128H71.68v395.264h119.84896v250.9824c0 37.62176 25.1904 62.70976 63.03744 62.70976h504.79104c37.86752 0 63.05792-25.088 63.05792-62.70976V690.03264h113.5616V301.056h-113.5616zM759.35744 75.264v219.62752H254.5664V75.264h504.79104z m-132.5056 370.15552c0 25.088-12.63616 50.176-31.58016 62.73024-12.65664 18.80064-37.84704 25.088-69.4272 25.088h-31.58016v94.06464h-50.52416V363.78624h88.3712c63.16032 0 94.76096 25.1904 94.76096 81.63328z m-403.8656 119.17312l-18.92352 62.70976H141.0048l94.63808-263.51616h63.0784l100.88448 263.51616h-63.03744l-18.944-62.70976H223.0272zM507.02336 972.3904c-18.92352 0-31.58016-12.55424-31.58016-31.37536 0-18.80064 12.65664-31.3344 31.58016-31.3344s31.58016 12.53376 31.58016 31.3344c0 18.8416-12.65664 31.37536-31.58016 31.37536z m252.33408-94.08512H254.5664v-188.27264h504.79104v188.27264z m63.05792-370.15552c-18.92352 18.80064-44.1344 25.088-75.71456 25.088h-31.58016v94.06464h-56.79104V363.78624h88.3712c63.0784 0 100.92544 25.06752 100.92544 81.5104 0.1024 25.21088-6.28736 50.29888-25.21088 62.85312z m-81.98144-100.352h-25.1904v81.53088h25.1904c31.58016 0 50.50368-12.55424 50.50368-43.90912 0-25.088-18.92352-37.62176-50.50368-37.62176z m-466.944 0c0 6.26688-6.26688 12.53376-6.26688 25.088l-31.58016 87.79776h69.4272l-25.1904-87.79776c-6.36928-6.28736-6.36928-12.55424-6.36928-25.088z" p-id="7664"></path></svg>