<?xml version="1.0" standalone="no"?><!DOCTYPE svg PUBLIC "-//W3C//DTD SVG 1.1//EN" "http://www.w3.org/Graphics/SVG/1.1/DTD/svg11.dtd"><svg t="1605521753865" class="icon" viewBox="0 0 1652 1024" version="1.1" xmlns="http://www.w3.org/2000/svg" p-id="13400" xmlns:xlink="http://www.w3.org/1999/xlink" width="206.5" height="128"><defs><style type="text/css"></style></defs><path d="M309.547186 2.544981a144.658037 144.658037 0 0 0-111.122507 91.052488C188.037 121.939158 1.315279 926.086515 0.4817 940.642089a74.509148 74.509148 0 0 0 62.518434 80.728931c14.747938 3.462559 488.797967 3.462559 504.443605 0a142.477907 142.477907 0 0 0 103.299688-86.756349c6.09154-16.350975 198.776557-835.887484 198.776558-849.673601a78.164072 78.164072 0 0 0-58.158174-81.626631C802.705413 1.583159 329.488963-0.148121 309.547186 2.48086z" fill="#E60012" p-id="13401"></path><path d="M751.408237 2.544981a144.658037 144.658037 0 0 0-111.122508 91.052488c-9.554099 28.34169-197.109399 832.489046-197.109399 847.04462a74.509148 74.509148 0 0 0 62.518433 80.728931c14.747938 3.462559 488.797967 3.462559 504.443606 0a142.413785 142.413785 0 0 0 103.171445-86.756349c6.09154-16.350975 198.776557-835.887484 198.776557-849.673601A78.164072 78.164072 0 0 0 1253.928198 3.314439c-9.554099-1.73128-482.706427-3.462559-502.712326-0.833579z" fill="#00508E" p-id="13402"></path><path d="M1212.633971 2.544981a144.658037 144.658037 0 0 0-111.122507 91.052488c-9.554099 28.34169-197.045278 832.489046-197.045278 847.04462a74.509148 74.509148 0 0 0 62.518433 80.728931c14.747938 3.462559 367.223659 3.462559 382.869298 0a142.413785 142.413785 0 0 0 103.299689-86.756349c6.09154-16.350975 198.776557-835.887484 198.776557-849.673601A78.164072 78.164072 0 0 0 1593.77199 3.314439c-8.656398-2.564859-404.606476-4.296138-424.548254-1.73128h43.410235z" fill="#00908C" p-id="13403"></path><path d="M294.735127 263.711729a56.362772 56.362772 0 0 1-2.628981 11.157136 931.684961 931.684961 0 0 0-37.318695 168.38298c6.925119 33.535529 56.426894 30.906549 73.803812-4.296138 5.193839-9.425856 42.512535-166.715822 42.512535-177.808837 0-0.833579 59.055874 0 59.055874 0.833579a18.210498 18.210498 0 0 1-0.897701 5.193839c-0.897701 2.564859-10.387678 38.472882-20.839478 81.626632a361.452727 361.452727 0 0 1-38.472882 118.560598c-39.947676 58.414659-173.640941 56.68338-184.028619-2.564859a1377.778028 1377.778028 0 0 1 39.049975-201.918509 375.687693 375.687693 0 0 1 69.443552 0.833579z m887.312903 0c39.947676 8.592277 52.066634 40.396526 33.856136 87.65405s-57.324594 67.840515-125.870446 67.840515c-20.839478 0-19.236441-3.462559-32.060735 60.979518-2.62898 12.054836-5.193839 23.211972-5.193839 24.943252a149.018297 149.018297 0 0 1-61.620732 0c52.066634-220.770222 56.426894-239.686055 56.426893-241.417335l0.897701-2.564859h62.518433a577.093231 577.093231 0 0 1 71.174832 2.564859z m-535.670761 85.025069a17.248675 17.248675 0 0 1 14.747938 14.619695c0 21.480692-44.307936 36.100388-60.787154 19.749413s17.376918-41.230105 46.039216-34.369108z m-153.891529 16.350975c0 1.73128-0.897701 5.193839-0.8977 7.758698l-0.897701 3.462559 10.387678-5.129717c27.764597-13.721995 54.695614-11.157136 63.352013 6.027418 5.193839 10.323557 4.36026 16.350975-9.554099 79.895352a374.2129 374.2129 0 0 0-6.925119 34.369108c-3.462559 17.184554-0.897701 16.350975-32.060735 16.350975-26.931017 0-26.931017 0-26.033317-2.564859s3.462559-15.453274 6.925119-32.060735c13.914359-60.979518 14.747938-69.571795 2.62898-69.571795a25.071495 25.071495 0 0 0-17.376918 6.860997 2516.895945 2516.895945 0 0 0-18.210498 87.65405l-1.731279 7.758698-26.931018 1.731279c-32.958436 0.833579-30.393577 3.462559-23.468458-25.648588a843.197332 843.197332 0 0 0 18.210498-88.487629c4.36026-25.648588 1.73128-23.211972 26.033317-26.61041 11.285379-1.73128 22.570757-3.462559 26.033316-4.296138 8.977006-2.693102 10.708286-1.795401 10.708286 2.500737z m412.365175-0.833579c0 1.73128-0.897701 5.129718-0.897701 7.758698l-0.8977 4.296138 10.451799-5.129717c53.797913-27.508111 74.637391-5.129718 59.055874 65.275656-3.462559 15.453274-7.822819 37.767546-10.387678 48.091103a91.18073 91.18073 0 0 1-5.193839 21.480692 161.073133 161.073133 0 0 1-53.862035 0c0-1.73128 3.462559-15.453274 6.925119-30.906548 14.747938-62.710798 14.747938-70.533617 1.73128-70.533617-10.387678 0-15.645639 3.462559-17.376919 11.157136a1916.013648 1916.013648 0 0 0-17.376918 82.46021l-1.73128 9.425856-26.931017 0.833579c-32.958436 0.833579-30.393577 4.296138-22.570758-27.50811 8.656398-34.369108 14.747938-66.173357 19.236441-89.321208s0.897701-19.749413 22.570758-23.211972c9.554099-1.73128 21.737178-3.462559 26.033316-4.296139 8.848763-4.232017 11.670108-3.334316 11.670108 0.128243z m527.014363-0.833579c3.462559 52.387241 4.36026 67.840515 4.36026 68.738216a297.4595 297.4595 0 0 0 16.479217-30.07297c17.376918-34.369108 13.914359-30.906549 33.022557-33.535528 5.193839-0.833579 15.645639-2.564859 23.468459-4.296139 19.236441-3.462559 19.236441-5.193839-2.628981 32.637828-29.495876 50.655961-70.533617 121.830793-85.089191 147.479382-44.243814 79.895352-44.243814 79.895352-81.626631 80.72893l-22.570758 0.83358 1.73128-6.027419c0.897701-3.462559 3.462559-10.323557 4.36026-15.453274l2.62898-9.425856h6.925119c7.822819 0 9.554099-1.73128 16.479218-13.721995a137.989404 137.989404 0 0 0 8.656398-15.453274c2.62898-4.296138 11.285379-18.018133 18.210498-32.060735l13.914359-24.045551-3.462559-32.060735c-4.36026-36.933967-9.554099-80.728931-12.18308-93.617347s-1.73128-12.054836 13.914359-13.721994c6.925119-0.833579 18.210498-3.462559 24.302037-4.296139 16.735704-4.424381 18.33874-4.424381 19.300563-2.693102z m-654.616089 0.833579c66.878693 12.054836 43.410235 127.152875-29.495876 143.439729-49.501775 11.157136-83.357911-7.758698-83.357911-45.526244a93.809711 93.809711 0 0 1 112.853787-97.913485z m500.147467 3.462559a52.194877 52.194877 0 0 1 11.285379 7.758698c4.36026 4.296138 4.36026 4.296138 4.36026 1.73128s0-3.398438 34.753837-8.592277c27.764597-4.296138 26.931017-4.296138 25.199737 3.462559-11.285379 48.091103-20.839478 90.218908-25.199737 110.801901-6.09154 30.906549-1.73128 27.508111-35.587416 26.61041H1263.546419v-3.46256c0-3.462559-1.73128-5.129718-3.46256-2.564858-9.554099 15.453274-56.426894 9.425856-69.443552-9.425856-32.060735-48.091103 36.485116-149.467147 86.820471-126.255175z m-623.388932 24.943252a37.51106 37.51106 0 0 1-0.897701 7.758698c-6.925119 27.508111-19.236441 83.357911-21.673057 93.617347l-2.62898 12.824294-28.662297 0.833579c-33.856136 0.833579-32.060735 2.564859-25.199738-18.018133a439.296192 439.296192 0 0 0 15.645639-69.571795c3.462559-22.314272 0-18.915834 25.199737-22.314272 11.285379-1.73128 23.468458-3.462559 26.033317-4.296139 6.925119-1.73128 11.285379-1.73128 12.18308-0.833579z m151.903762 177.808837a35.33093 35.33093 0 0 1-4.36026 8.592277 38.472882 38.472882 0 0 1-4.36026 7.758698c51.297176 0.833579 52.964334 0.833579 52.066634 3.462559l-9.554099 30.906549h-74.637391l-4.36026 3.462559c-9.554099 8.592277-59.889453 19.749413-59.889453 12.824294l9.554099-30.906548h6.925119c12.183079 0 14.747938-2.564859 25.199737-20.647114l8.656399-16.350975a255.203451 255.203451 0 0 1 54.9521 0.833579z m113.751488 0a53.797913 53.797913 0 0 1-2.62898 10.323557 38.472882 38.472882 0 0 0-2.62898 9.425856 40.075919 40.075919 0 0 0 9.554099-6.027418c19.236441-12.824294 35.587416-15.453274 84.19149-15.453275a298.998415 298.998415 0 0 1 36.485117 0.833579c0.897701 1.73128-27.764597 94.515047-32.060735 103.107324a43.666721 43.666721 0 0 1-21.673057 21.480693l-8.656399 3.462559-49.501775 0.833579-49.501775 0.833579-8.656398 29.239391c-17.376918 55.8498-17.376918 51.297176 7.822819 48.988803 19.941777-1.73128 19.236441-3.462559 12.824294 17.184554l-5.193839 17.184554h-25.199738c-54.695614 0.833579-61.620733-2.564859-56.426893-24.943252 2.62898-11.157136 65.083292-215.640504 65.980992-217.371784a263.988092 263.988092 0 0 1 45.462123 0.833579z m228.336555 0c0 0.833579-0.897701 3.462559-1.731279 6.860997-2.62898 8.592277-2.62898 8.592277 8.656398 2.564859a347.410125 347.410125 0 0 1 120.676607-10.323557h22.570757v10.323557c0 12.054836 0.897701 12.824294 11.285379 14.619695l7.822819 0.833579-4.360259 15.453275-4.36026 15.453274h-15.645639c-39.947676 0.833579-46.039216-3.398438-46.872795-26.61041v-11.413622l-2.62898 7.758698-2.62898 8.592277h-8.464034c-4.36026 0-8.656398 0-8.656399 0.833579s-42.512535 140.041291-48.604074 159.790704c-0.897701 1.73128 0 2.564859 5.193839 2.564858 7.822819 0 7.822819 0 5.193839 6.860998s-2.62898 7.758698 6.09154 7.758698a23.917308 23.917308 0 0 0 13.914359-3.46256c6.09154-3.462559 6.09154-2.564859 33.856136-41.230105l11.285379-16.350975h-23.468458c-28.662297 0-26.033317 1.73128-20.839478-15.453274l4.36026-13.721995h57.324594c5.193839-18.018133 6.925119-23.211972 6.925119-24.045551a157.546452 157.546452 0 0 0-27.764597-0.833579h-27.636353l8.656398-30.906549h78.164072c42.512535 0 78.164072 0 78.164072 0.833579a116.957561 116.957561 0 0 1-4.36026 15.453275l-4.36026 14.619695-26.033317 0.833579-26.033317 0.833579c-4.36026 12.824294-6.09154 18.915834-6.925118 20.647113l-0.897701 3.46256h25.199738c29.495876 0 27.764597-1.73128 21.673057 15.453274l-4.36026 13.721995h-57.324594l-8.656399 10.323556h22.570758l3.462559 20.647114c3.462559 23.211972 3.462559 23.211972 14.747938 23.211972 8.656398 0 8.656398-1.73128 2.62898 18.915834l-5.193839 17.184554h-16.479218c-28.662297 0-33.856136-4.296138-39.049975-33.471408l-2.62898-18.915834-10.387678 13.721995c-28.662297 38.472882-30.393577 39.498826-66.878694 39.498826-23.468458 0-23.468458 0-19.941777-6.860998 0.897701-3.462559 0.897701-3.462559-6.091539-3.462559s-6.925119 0-8.656399 5.129718l-0.897701 5.129717h-48.604074l0.897701-2.564859c2.62898-8.592277 6.925119-7.694576-46.039216-7.694576-46.039216 0-48.604074 0-47.770495-2.564859l4.36026-15.453274c5.193839-15.453274 4.36026-15.453274 9.554099-15.453274s4.36026 0 6.09154-6.027419c40.781255-134.655087 53.862035-177.808837 55.593314-183.836254l3.46256-11.157136h24.302037a106.954612 106.954612 0 0 1 26.738653 1.859522z m-308.231906 73.867933l-9.554099 30.07297h-52.066634a251.099677 251.099677 0 0 1-7.82282 24.045551c-0.897701 2.564859 0.897701 2.564859 26.033317 2.564859 14.747938 0 26.931017 0.833579 26.931018 0.833579a33.856136 33.856136 0 0 1-1.73128 5.129718 143.439729 143.439729 0 0 0-4.36026 15.453274l-3.462559 11.157136h-53.797914l-6.091539 20.647113c-8.656398 29.23939-7.822819 30.072969 25.199737 25.648588 13.914359-1.73128 12.824294-3.462559 6.925119 17.184554l-5.193839 17.184554h-36.485116c-57.324594 0-58.158173-1.73128-42.512535-50.720083 4.36026-15.453274 8.656398-28.34169 8.656398-28.341689a116.44459 116.44459 0 0 0-14.747938-0.833579 47.193402 47.193402 0 0 1-14.747938-0.83358c6.09154-21.480692 8.656398-28.34169 8.656399-30.072969s2.62898-2.564859 15.645638-2.564859h14.747938l6.925119-26.61041h-13.97848c-10.4518 0-13.914359 0-13.914359-1.73128s7.822819-26.61041 8.656398-29.23939 132.859686-0.833579 131.961986 0.833579z m168.447102 61.877219c0 1.73128-1.73128 6.860997-2.628981 11.157136-5.193839 24.045551-12.183079 29.23939-39.947676 30.906549l-18.210497 1.731279a68.609973 68.609973 0 0 0 0 26.61041l2.62898 3.46256 17.376919-0.833579c9.554099-0.833579 17.376918-0.833579 17.376918-0.83358 0 1.73128-9.554099 32.060735-10.387678 32.637829a304.833469 304.833469 0 0 1-61.620733-1.73128c-10.387678-3.462559-10.387678-2.564859-9.554099-56.68338l0.897701-47.257523h44.307935v18.018133h8.656399c9.554099 0 10.387678-0.833579 14.747938-12.824294l2.62898-6.860997h17.376919c15.645639 0.705336 17.44104 0.705336 16.543339 2.436616z m81.818995-368.057238l-9.554099 41.230105h12.824294c66.878693 1.73128 94.64329-74.765634 29.495877-79.895352-10.387678-0.833579-19.941777-1.73128-20.839478-1.731279-2.372494 0.320607-2.372494 2.885466-11.926594 40.396526z m-345.550602 58.414659c-16.479218 6.860997-32.060735 68.738216-19.236441 78.164072 9.554099 7.758698 23.468458-5.129718 30.393577-26.61041 11.413622-39.434704 7.951062-58.158173-11.157136-51.233055z m517.460264 4.296138c-17.376918 8.592277-30.393577 69.571795-17.376919 76.432793 17.376918 9.425856 39.947676-23.211972 39.947676-58.414659 0-16.030368-9.554099-23.724944-22.570757-17.697526z m-350.744442 204.483369l-4.36026 15.453274a143.9527 143.9527 0 0 1-5.193839 15.453274c0 0.833579 4.36026-0.833579 10.387678-4.296138a87.269321 87.269321 0 0 1 47.770496-11.157136l21.737178-0.833579a85.345677 85.345677 0 0 0 4.36026-15.453274 725.470313 725.470313 0 0 0-74.637391 0.833579z m-14.747938 49.822382l-3.462559 13.721995 74.637391-0.83358 4.36026-13.721994c-59.055874 0.256486-75.599213 0.256486-75.599213 1.090065z m236.159375-30.906549a83.357911 83.357911 0 0 0-5.19384 19.749413l10.387679-3.462559a168.254738 168.254738 0 0 1 19.941777-5.129718c5.193839-0.833579 9.554099-1.73128 10.387678-1.73128s8.656398-26.61041 8.656398-27.50811-8.656398-0.833579-19.236441-0.833579h-19.236441l-6.091539 18.915833z m-13.914359 43.794964c0 0.833579-3.462559 9.425856-6.09154 19.749413s-6.09154 19.749413-6.09154 19.749413 4.36026-0.833579 10.387678-3.462559a104.26151 104.26151 0 0 1 19.941778-6.027419c11.285379-1.73128 12.183079-2.564859 12.824294-6.860997 0.897701-1.73128 2.62898-8.592277 4.36026-13.721994l3.462559-10.323557h-19.236441a86.499863 86.499863 0 0 0-19.941777 0.833579z m-30.393577 98.811186l38.472882 0.833579c7.822819-25.648588 10.387678-34.369108 10.387678-35.202687l-38.472882-1.73128z" fill="#FFFFFF" p-id="13404"></path></svg>