<?xml version="1.0" standalone="no"?><!DOCTYPE svg PUBLIC "-//W3C//DTD SVG 1.1//EN" "http://www.w3.org/Graphics/SVG/1.1/DTD/svg11.dtd"><svg t="1592906106122" class="icon" viewBox="0 0 1638 1024" version="1.1" xmlns="http://www.w3.org/2000/svg" p-id="12506" width="204.75" height="128" xmlns:xlink="http://www.w3.org/1999/xlink"><defs><style type="text/css"></style></defs><path d="M995.185376 834.694718h-125.843918v-128.965708h172.977814a142.527578 142.527578 0 0 1 112.077341-35.6191 143.090523 143.090523 0 0 1 77.788839 35.6191h65.301684v55.424549l141.094625-125.280973V104.24728C1438.581761 46.622127 1386.995478 0 1340.015113 0H106.396709C30.040822 0 0 46.622127 0 104.24728v778.29781c0 57.625153 49.590385 104.24728 110.695566 104.24728h989.248859l-67.860527-73.489983a145.086421 145.086421 0 0 1-36.898522-78.607669zM869.341458 189.86618h428.094501v128.965708h-428.094501v-128.965708z m0 257.931415h428.094501v128.965708h-428.094501V447.797595z m-728.758601 385.464171s-1.535306-90.941295 18.884264-110.234974c20.470747-19.242502 28.812577-53.991596 137.409891-69.805248 108.546137-15.813652 97.236049-72.159384 100.716076-70.368194-0.665299-21.340754-2.814728-51.381576-2.814728-51.381575s-56.499262-23.643713-73.182921-70.368194c-35.004978-13.868931-30.347883-22.722529-33.776733-40.68561 0 0-10.542435-72.517622 13.050101-71.033493 0 0 15.35306 0 11.617149-16.683659-1.228245-27.737862-1.228245-81.575928 0.614123-99.9996 1.893544-18.526026 15.813652-68.577003 55.21984-75.895295 39.406188-7.420646 23.541359-3.633558 36.744992-5.629456 13.152455-1.79119 9.416544-9.211836 33.776733-9.211836l50.613922-10.235374c24.360189 0 39.969134 39.252658 53.121589 41.197379 13.152455 1.842367 16.274244-5.629455 43.193277-0.716476 39.406188 7.420646 33.930264 60.235174 35.823807 78.812377 1.842367 18.423673 5.322394 68.730534 1.586483 85.363016-3.735911 16.683659 7.932415 14.841292 7.932415 14.841291 28.147277 0 19.344856 71.033493 19.344856 71.033493-4.298857 18.781911-16.120713 21.08487-42.272093 37.359114-16.683659 46.826834-69.856425 81.21769-69.856425 81.21769s-0.255884 38.740889-0.460592 47.236249c0.767653 3.27532-6.03887 51.535106 86.540084 65.148153 108.597314 15.813652 127.328048 50.562746 147.798795 69.805248 20.470747 19.293679 22.671353 110.234974 22.671353 110.234974H140.582857z m1483.719758-168.730134a54.196303 54.196303 0 0 0-34.186148-18.116612 53.940419 53.940419 0 0 0-42.118562 13.203632l-263.663224 234.031818-107.420246-116.376198a53.684535 53.684535 0 0 0-76.304711-2.763551 54.963956 54.963956 0 0 0-2.712374 77.021187l143.192877 155.21944c8.444183 9.211836 19.958979 14.994822 32.241427 16.427775a55.782786 55.782786 0 0 0 31.013182-5.424748 44.523875 44.523875 0 0 0 11.92421-7.318292l303.12059-268.985619a54.963956 54.963956 0 0 0 4.912979-76.918832z"></path></svg>