<?xml version="1.0" standalone="no"?><!DOCTYPE svg PUBLIC "-//W3C//DTD SVG 1.1//EN" "http://www.w3.org/Graphics/SVG/1.1/DTD/svg11.dtd"><svg t="1629971656475" class="icon" viewBox="0 0 1024 1024" version="1.1" xmlns="http://www.w3.org/2000/svg" p-id="6174" xmlns:xlink="http://www.w3.org/1999/xlink" width="128" height="128"><defs><style type="text/css"></style></defs><path d="M967.111111 475.591111v63.715556c0 6.826667-2.275556 13.653333-2.275555 20.48-4.551111 45.511111-15.928889 86.471111-34.133334 127.431111-40.96 95.573333-106.951111 168.391111-197.973333 218.453333-50.062222 27.306667-104.675556 45.511111-161.564445 52.337778-11.377778 2.275556-20.48 2.275556-31.857777 4.551111h-52.337778c-2.275556 0-4.551111-2.275556-6.826667-2.275556-52.337778-2.275556-100.124444-15.928889-147.911111-36.408888-79.644444-34.133333-145.635556-88.746667-195.697778-159.288889C95.573333 705.422222 68.266667 637.155556 59.164444 564.337778c-2.275556-11.377778-2.275556-22.755556-4.551111-34.133334v-50.062222c0-2.275556 0-4.551111 2.275556-6.826666 2.275556-20.48 4.551111-40.96 9.102222-59.164445 18.204444-84.195556 56.888889-157.013333 113.777778-218.453333 50.062222-54.613333 111.502222-93.297778 179.768889-116.053334 68.266667-25.031111 138.808889-31.857778 211.626666-20.48 70.542222 9.102222 134.257778 34.133333 193.422223 75.093334 59.164444 40.96 106.951111 93.297778 143.36 154.737778 27.306667 50.062222 45.511111 102.4 52.337777 159.288888 4.551111 9.102222 4.551111 18.204444 6.826667 27.306667zM910.222222 509.724444C910.222222 291.271111 730.453333 113.777778 512 113.777778 293.546667 111.502222 113.777778 291.271111 113.777778 509.724444c2.275556 220.728889 177.493333 395.946667 398.222222 395.946667 218.453333 0 398.222222-175.217778 398.222222-395.946667z" fill="" p-id="6175"></path><path d="M621.226667 473.315556l-27.306667-54.613334h50.062222c2.275556 0 4.551111 2.275556 6.826667 4.551111 18.204444 27.306667 31.857778 56.888889 43.235555 86.471111 4.551111 11.377778 9.102222 20.48 13.653334 31.857778h-54.613334c-2.275556 0-4.551111-2.275556-4.551111-4.551111-2.275556-6.826667-4.551111-11.377778-6.826666-18.204444 0-4.551111-2.275556-4.551111-6.826667-4.551111-13.653333 2.275556-25.031111 2.275556-38.684444 4.551111v138.808889c0 15.928889 9.102222 25.031111 25.031111 25.031111h34.133333c18.204444 0 27.306667-9.102222 27.306667-29.582223v-18.204444h47.786666c-2.275556 15.928889 0 34.133333-4.551111 50.062222-4.551111 22.755556-22.755556 34.133333-45.511111 36.408889-31.857778 2.275556-61.44 2.275556-93.297778 0-31.857778-2.275556-50.062222-22.755556-50.062222-56.888889v-131.982222c0-6.826667-2.275556-9.102222-9.102222-9.102222-15.928889 0-34.133333 2.275556-50.062222 2.275555-6.826667 0-6.826667 2.275556-6.826667 6.826667v47.786667c-2.275556 45.511111-25.031111 79.644444-61.44 104.675555-34.133333 22.755556-70.542222 36.408889-111.502222 43.235556v-36.408889c40.96-13.653333 77.368889-31.857778 97.848889-72.817778 15.928889-29.582222 15.928889-61.44 13.653333-93.297778h-75.093333v-27.306666c-2.275556-13.653333 2.275556-20.48 13.653333-27.306667 31.857778-25.031111 61.44-54.613333 84.195556-88.746667 0-2.275556 2.275556-2.275556 4.551111-6.826666H295.822222v-40.96h163.84c15.928889 0 15.928889 0 15.928889-15.928889v-27.306667H546.133333v40.96h182.044445v40.96h-207.075556c-4.551111 0-6.826667 0-11.377778 4.551111-27.306667 36.408889-61.44 68.266667-100.124444 95.573334-2.275556 0-2.275556 2.275556-2.275556 2.275555v2.275556c70.542222 4.551111 141.084444 2.275556 213.902223-4.551111z" fill="" p-id="6176"></path></svg>