<?xml version="1.0" standalone="no"?><!DOCTYPE svg PUBLIC "-//W3C//DTD SVG 1.1//EN" "http://www.w3.org/Graphics/SVG/1.1/DTD/svg11.dtd"><svg t="1652409320119" class="icon" viewBox="0 0 1024 1024" version="1.1" xmlns="http://www.w3.org/2000/svg" p-id="3698" width="16" height="16" xmlns:xlink="http://www.w3.org/1999/xlink"><defs><style type="text/css">@font-face { font-family: feedback-iconfont; src: url("//at.alicdn.com/t/font_1031158_u69w8yhxdu.woff2?t=1630033759944") format("woff2"), url("//at.alicdn.com/t/font_1031158_u69w8yhxdu.woff?t=1630033759944") format("woff"), url("//at.alicdn.com/t/font_1031158_u69w8yhxdu.ttf?t=1630033759944") format("truetype"); }
</style></defs><path d="M913.3 406.6v-238H346.6v668h566.8v-238c-88.6-28.2-88.5-163.7-0.1-192z" fill="#FEDB32" p-id="3699"></path><path d="M883 856.8H134c-39.1 0-70.8-31.7-70.8-70.8V601.8c0-15.6 12.7-28.3 28.3-28.3 33.8 0 64.6-22.8 71.4-56 9.3-45.5-25.4-85.7-69.3-85.7-16.8 0-30.4-13.6-30.4-30.4V219.2c0-39.1 31.7-70.8 70.8-70.8h749c39.1 0 70.8 31.7 70.8 70.8v184.2c0 15.6-12.7 28.3-28.3 28.3-31 0-60.2 18.8-69.4 48.3-15.1 48.6 21 93.4 67.4 93.4 16.8 0 30.4 13.6 30.4 30.4V786c-0.1 39.1-31.8 70.8-70.9 70.8zM123.9 630.6V786c0 5.6 4.5 10.1 10.1 10.1h749c5.6 0 10.1-4.5 10.1-10.1V630.6c-58-13.7-101.2-65.9-101.2-128s43.3-114.3 101.2-128V219.2c0-5.6-4.5-10.1-10.1-10.1H134c-5.6 0-10.1 4.5-10.1 10.1v155.4c58 13.7 101.2 65.9 101.2 128s-43.3 114.3-101.2 128z" fill="#303030" p-id="3700"></path><path d="M365.3 330.5h-57.7c-0.8 0-1.5-0.7-1.5-1.5V190.3c0-0.8 0.7-1.5 1.5-1.5h57.7c0.8 0 1.5 0.7 1.5 1.5V329c0 0.9-0.7 1.5-1.5 1.5zM365.3 573.4h-57.7c-0.8 0-1.5-0.7-1.5-1.5V413c0-0.8 0.7-1.5 1.5-1.5h57.7c0.8 0 1.5 0.7 1.5 1.5v158.9c0 0.9-0.7 1.5-1.5 1.5zM365.3 836.6h-57.7c-0.8 0-1.5-0.7-1.5-1.5V655.9c0-0.8 0.7-1.5 1.5-1.5h57.7c0.8 0 1.5 0.7 1.5 1.5v179.2c0 0.8-0.7 1.5-1.5 1.5z" fill="#303030" p-id="3701"></path></svg>