<?xml version="1.0" standalone="no"?><!DOCTYPE svg PUBLIC "-//W3C//DTD SVG 1.1//EN" "http://www.w3.org/Graphics/SVG/1.1/DTD/svg11.dtd"><svg t="1609393922631" class="icon" viewBox="0 0 1024 1024" version="1.1" xmlns="http://www.w3.org/2000/svg" p-id="3233" xmlns:xlink="http://www.w3.org/1999/xlink" width="128" height="128"><defs><style type="text/css"></style></defs><path d="M512 1024C229.226667 1024 0 794.773333 0 512S229.226667 0 512 0s512 229.226667 512 512-229.226667 512-512 512z m133.738667-589.226667a14.208 14.208 0 0 0-12.864-8.106666h-94.336l89.472-149.12a14.208 14.208 0 0 0-12.202667-21.546667h-136.533333a14.229333 14.229333 0 0 0-13.205334 8.96l-102.4 255.978667a14.229333 14.229333 0 0 0 13.226667 19.498666h64.810667l-78.122667 208.32a14.229333 14.229333 0 0 0 24.32 14.016l256-312.896a14.208 14.208 0 0 0 1.834667-15.082666z" p-id="3234"></path></svg>