<?xml version="1.0" standalone="no"?><!DOCTYPE svg PUBLIC "-//W3C//DTD SVG 1.1//EN" "http://www.w3.org/Graphics/SVG/1.1/DTD/svg11.dtd"><svg t="1602212344665" class="icon" viewBox="0 0 1479 1024" version="1.1" xmlns="http://www.w3.org/2000/svg" p-id="4101" xmlns:xlink="http://www.w3.org/1999/xlink" width="184.875" height="128"><defs><style type="text/css"></style></defs><path d="M1220.236839 857.831617c-25.030499 0-46.249536 8.134912-63.372673 24.461625-17.123137 16.3836-25.770037 35.668461-25.770037 57.96836 0 23.153212 8.6469 42.893174 25.770037 59.219886 17.123137 16.326712 38.399061 24.518512 63.42956 24.518512 24.006524 0 44.941124-8.1918 62.633136-24.461624 17.748899-16.3836 26.509574-36.123561 26.509574-59.276774 0-22.299899-8.931337-41.584761-26.509574-57.96836a89.028935 89.028935 0 0 0-62.633136-24.461625z m-959.407659-1.3653c-25.030499 0-46.306424 8.1918-63.429561 24.461625a78.959848 78.959848 0 0 0-25.770037 59.33366c0 22.243012 8.6469 41.527874 25.770037 57.911474 17.123137 16.326712 38.342174 24.461624 63.429561 24.461624 25.030499 0 46.249536-8.134912 63.372673-24.461624 17.123137-16.326712 25.770037-35.668461 25.770037-57.911474 0-23.210099-8.6469-42.950061-25.770037-59.276773a88.516947 88.516947 0 0 0-63.372673-24.518512zM1089.22493 209.371024a431.662337 431.662337 0 0 0-96.19676-3.299475c-10.23975 0.796425-18.886649 7.452262-25.940699 19.910625-6.883387 12.51525-10.410412 23.323874-10.410412 32.824086v620.813269a52.905373 52.905373 0 0 0 18.203999 39.991912c11.946375 11.093062 26.452687 16.781812 43.177612 16.781812h25.201161c0-21.560362 4.551-41.926086 13.311675-61.210949a163.835995 163.835995 0 0 1 36.294224-50.800536c15.359625-14.5632 33.279187-26.168249 53.758686-34.701374a170.32117 170.32117 0 0 1 66.899698-12.970349c24.177187 0 47.216624 2.95815 69.004535 9.102a159.284995 159.284995 0 0 1 57.115049 28.329974c16.212937 12.7428 29.297062 29.581499 39.081711 50.174773 9.78465 20.650162 14.620087 45.509999 14.620087 74.750173h57.115048a15.0183 15.0183 0 0 0 13.368562-7.7367c3.1857-5.23365 5.973187-11.434387 8.305575-18.772874 2.389275-7.224712 3.982125-14.506312 4.835438-21.787912 0.9102-7.2816 1.308412-13.482337 1.308412-18.715987 0-26.566462 0.341325-61.040286 0.739537-103.080147a885.397024 885.397024 0 0 0-9.784649-135.904233 796.424976 796.424976 0 0 0-36.919987-148.647033 485.819236 485.819236 0 0 0-79.528722-143.015171 278.748742 278.748742 0 0 0-72.474673-64.453536 441.788312 441.788312 0 0 0-92.10086-43.803373 536.904209 536.904209 0 0 0-98.984247-23.778975zM561.024508 48.948279c19.739962 45.737549 30.719249 96.42431 30.719249 149.614121 0 206.501619-165.599508 373.921526-369.882514 373.921526A365.615952 365.615952 0 0 1 0 497.790641v389.679363c0 16.212937 5.119875 28.728187 15.359625 37.318199 10.23975 8.590012 23.323874 12.913462 39.138598 12.913462h32.027662c0-54.953323 15.24585-95.912322 45.396224-122.990771 30.150374-27.021562 73.66931-40.503899 130.329258-40.503899 59.447436 0 103.137034 14.676975 131.068796 43.803374 27.988649 29.126399 41.869199 69.061423 41.869199 119.691296h380.748026c14.961412 0 27.704212-4.551 38.399062-14.1081a46.135761 46.135761 0 0 0 15.928499-36.066673L867.534349 48.948279z m546.176872 272.092904c13.084125-0.853312 29.183287-0.284437 48.183711 1.934175 19.057312 2.104837 39.252374 6.8265 60.642073 14.1081 21.389699 7.2816 41.470986 19.000424 60.01631 35.384024a229.256618 229.256618 0 0 1 61.438499 99.780672c12.117037 39.081711 23.210099 79.642498 33.506736 121.625471a8.533125 8.533125 0 0 0 0.68265 3.86835l0.568875 1.59285 0.170663 2.2755c0 10.410412-4.209675 15.757837-12.572138 16.212937a567.168358 567.168358 0 0 1-29.297061 0.568875h-256.676392a28.671299 28.671299 0 0 1-19.512412-9.102c-6.59895-5.9163-9.78465-11.093062-9.78465-15.359624v-1.3653a5546.531085 5546.531085 0 0 1-1.308413-114.685197h-0.341325V360.976207c0-9.500212 4.266562-18.203999 12.629025-26.395799a42.665624 42.665624 0 0 1 30.719249-12.173925c0.9102 0 7.96425-0.4551 20.9346-1.3653zM229.427281 10.49233a37.318199 37.318199 0 0 0-51.767624 0 34.815149 34.815149 0 0 0 0 50.345436l81.690448 79.471835H35.156474c-16.099162 0-29.297062 16.952474-29.297062 37.887074 0 20.934599 13.1979 37.830186 29.297062 37.830187h224.136743l-81.690447 79.642497a34.815149 34.815149 0 0 0 0 50.345436 37.318199 37.318199 0 0 0 51.881398 0l146.428421-142.616958a34.815149 34.815149 0 0 0 0-50.345436z" p-id="4102"></path></svg>