<svg t="1592905449251" class="icon" viewBox="0 0 1024 1024" version="1.1" xmlns="http://www.w3.org/2000/svg" p-id="7757" width="128" height="128"><path d="M716.8 153.6a204.8 204.8 0 0 1 204.8 204.8v316.0064a102.4 102.4 0 0 1-30.0032 72.3968L665.6 972.8l-51.2-102.4H307.2a204.8 204.8 0 0 1-204.8-204.8V358.4a204.8 204.8 0 0 1 204.8-204.8h409.6z m0 102.4H307.2a102.4 102.4 0 0 0-102.144 94.72L204.8 358.4v307.2a102.4 102.4 0 0 0 94.72 102.144L307.2 768h307.2a102.4 102.4 0 0 1 72.6528 30.208l3.9424 4.3008L819.2 674.4064V358.4a102.4 102.4 0 0 0-94.72-102.144L716.8 256zM537.6 614.4a25.6 25.6 0 0 1 0 51.2h-51.2a25.6 25.6 0 0 1 0-51.2h51.2z m0-256a25.6 25.6 0 0 1 25.6 25.6v153.6a25.6 25.6 0 0 1-25.6 25.6h-51.2a25.6 25.6 0 0 1-25.6-25.6v-153.6a25.6 25.6 0 0 1 25.6-25.6h51.2z"></path></svg>