<?xml version="1.0" standalone="no"?><!DOCTYPE svg PUBLIC "-//W3C//DTD SVG 1.1//EN" "http://www.w3.org/Graphics/SVG/1.1/DTD/svg11.dtd"><svg t="1612145325682" class="icon" viewBox="0 0 1024 1024" version="1.1" xmlns="http://www.w3.org/2000/svg" p-id="1990" xmlns:xlink="http://www.w3.org/1999/xlink" width="128" height="128"><defs><style type="text/css"></style></defs><path d="M857.643665 31.723246c19.077305 16.114542 33.313021 66.373124-7.840483 79.055196s-53.402002-36.890016-64.024592-55.244696-49.969532-60.592122-116.523312 55.244696c-16.367461 39.455335-20.847737 26.050638-58.062934 182.607385q-8.129533 44.802762-15.608704 85.342035l175.236609 20.992262v64.096854l-186.762481-23.485318q-10.225146 54.196889-19.185698 99.288701l185.642411 22.256856v64.169116l-198.143827-24.930569-0.397444 1.98722C504.06316 890.16584 356.32244 1022.731431 303.643063 1022.731431s-96.073019 8.02114-124.002482-18.354679-45.236337-46.356406-19.547012-80.066871c61.423141-7.226252 52.390326 33.168496 72.479307 45.416993a145.464451 145.464451 0 0 0 71.070187 22.545906c18.06563 0 50.583763 0 105.069703-192.615745 21.353574-82.379272 36.456441-151.245452 48.235231-210.536849l-193.08545-24.135681v-61.423141l204.755847 24.533125c6.792677-36.817753 12.537547-69.6972 18.06563-100.011326l-202.660235-25.50867v-61.423141l214.944863 25.761588 0.361313-1.083938a963.223247 963.223247 0 0 1 64.132985-198.469008c17.270742-37.86556 92.929599-158.977542 185.786937-165.987006s89.316473 14.416373 108.393778 30.350258z" p-id="1991"></path></svg>