<?xml version="1.0" standalone="no"?><!DOCTYPE svg PUBLIC "-//W3C//DTD SVG 1.1//EN" "http://www.w3.org/Graphics/SVG/1.1/DTD/svg11.dtd"><svg t="1603348017990" class="icon" viewBox="0 0 1024 1024" version="1.1" xmlns="http://www.w3.org/2000/svg" p-id="3050" xmlns:xlink="http://www.w3.org/1999/xlink" width="128" height="128"><defs><style type="text/css"></style></defs><path d="M512 20.48C243.2 20.48 25.6 238.08 25.6 506.88s217.6 486.4 486.4 486.4 486.4-217.6 486.4-486.4-217.6-486.4-486.4-486.4z m243.2 204.8c-10.24 7.68-23.04 5.12-33.28-5.12-7.68-7.68-12.8-15.36-20.48-23.04-15.36-20.48-38.4-23.04-56.32-5.12-12.8 12.8-25.6 30.72-33.28 48.64-17.92 53.76-30.72 110.08-48.64 166.4l140.8 20.48-10.24 38.4-135.68-20.48-15.36 81.92 145.92 20.48-10.24 38.4-143.36-20.48c-10.24 33.28-15.36 69.12-28.16 99.84-12.8 35.84-25.6 71.68-40.96 104.96-20.48 43.52-56.32 74.24-104.96 81.92-28.16 5.12-58.88 2.56-81.92-15.36-7.68-5.12-15.36-15.36-15.36-23.04 0-10.24 5.12-23.04 12.8-28.16 5.12-2.56 17.92 0 25.6 2.56 7.68 7.68 15.36 17.92 20.48 28.16 15.36 20.48 35.84 23.04 56.32 7.68 23.04-20.48 35.84-48.64 43.52-76.8 15.36-61.44 30.72-120.32 43.52-181.76v-10.24l-135.68-20.48 5.12-38.4 140.8 20.48 17.92-79.36-145.92-23.04 5.12-40.96 151.04 20.48c5.12-15.36 7.68-28.16 12.8-40.96 12.8-46.08 25.6-92.16 56.32-133.12C604.16 179.2 640 153.6 693.76 156.16c23.04 0 46.08 7.68 61.44 25.6 2.56 2.56 7.68 7.68 7.68 12.8 0 10.24 0 23.04-7.68 30.72z" p-id="3051"></path></svg>