<?xml version="1.0" standalone="no"?><!DOCTYPE svg PUBLIC "-//W3C//DTD SVG 1.1//EN" "http://www.w3.org/Graphics/SVG/1.1/DTD/svg11.dtd"><svg t="1603785107679" class="icon" viewBox="0 0 1024 1024" version="1.1" xmlns="http://www.w3.org/2000/svg" p-id="2666" xmlns:xlink="http://www.w3.org/1999/xlink" width="128" height="128"><defs><style type="text/css"></style></defs><path d="M512 1024C229.229714 1024 0 794.770286 0 512S229.229714 0 512 0s512 229.229714 512 512-229.229714 512-512 512z m248.597943-314.250971H760.685714v-103.189943h-128.8192c-12.4928 0-22.498743-2.56-30.032457-7.489829-7.445943-5.0176-12.4928-11.190857-14.965028-17.451886a56.554057 56.554057 0 0 1-6.290286-26.082742c0-13.663086 4.973714-26.082743 14.979657-36.0448 10.005943-9.947429 21.255314-14.891886 36.234971-14.891886h127.414858v-77.1072c0-13.663086-4.973714-26.097371-14.979658-36.0448-10.020571-9.947429-21.269943-14.891886-36.2496-14.891886H329.157486c-13.736229 0-26.229029 4.929829-36.234972 14.891886-10.020571 9.947429-14.979657 21.152914-14.979657 36.0448v283.501714c0 7.4752 1.243429 13.648457 3.715657 19.894857 3.730286 6.187886 7.533714 11.205486 12.4928 14.906515 5.046857 4.929829 11.264 8.718629 17.554286 11.190857 6.290286 2.472229 12.478171 3.701029 20.011886 3.701028h378.909257c7.533714 0 13.750857-1.2288 20.026514-3.701028 6.202514-2.472229 11.264-6.261029 16.223086-11.190857 3.715657-4.944457 7.519086-9.874286 10.005943-16.135315 2.486857-6.2464 3.715657-12.434286 3.715657-19.909485z m-77.5168-360.594286l-35.079314-64.775314c-6.290286-6.173257-12.4928-12.434286-21.255315-16.120686-7.460571-2.486857-16.223086-4.944457-26.229028-4.944457-10.005943 0-21.269943 2.472229-35.079315 9.947428-8.689371 5.032229-21.269943 11.205486-36.234971 19.924115-16.223086 8.718629-31.275886 16.135314-47.484343 24.853942-17.466514 9.947429-37.4784 19.909486-57.504914 31.100343h258.8672z m-77.531429 206.379886c0 7.489829 2.486857 13.750857 7.548343 18.680685 5.046857 5.0176 11.249371 7.489829 18.768457 7.489829 7.533714 0 13.824-2.56 18.783086-7.489829 5.046857-5.0176 7.533714-11.190857 7.533714-18.680685 0-7.489829-2.574629-13.750857-7.533714-18.680686-5.046857-5.0176-11.249371-7.489829-18.783086-7.489829-7.519086 0-13.809371 2.545371-18.768457 7.489829-5.046857 5.0176-7.533714 11.190857-7.533714 18.680686z" p-id="2667"></path></svg>