<?xml version="1.0" standalone="no"?><!DOCTYPE svg PUBLIC "-//W3C//DTD SVG 1.1//EN" "http://www.w3.org/Graphics/SVG/1.1/DTD/svg11.dtd"><svg t="1602813671390" class="icon" viewBox="0 0 1024 1024" version="1.1" xmlns="http://www.w3.org/2000/svg" p-id="4491" xmlns:xlink="http://www.w3.org/1999/xlink" width="128" height="128"><defs><style type="text/css"></style></defs><path d="M727.04 428.999111l-298.552889 298.666667-148.48-154.567111a33.678222 33.678222 0 0 0-47.786667 0 33.678222 33.678222 0 0 0 0 47.786666l171.804445 178.574223a33.621333 33.621333 0 0 0 46.08 1.592888c1.649778-1.194667 2.844444-2.389333 4.437333-3.584l320.682667-320.682666a33.678222 33.678222 0 0 0 0-47.786667 34.133333 34.133333 0 0 0-48.184889 0z m86.698667-272.497778h-109.966223A214.641778 214.641778 0 0 0 497.493333 0 214.755556 214.755556 0 0 0 291.271111 156.501333H181.248C128.284444 156.501333 85.333333 199.452444 85.333333 252.416v661.048889c0 52.906667 42.951111 95.914667 95.914667 95.914667h632.490667c52.963556 0 95.914667-42.951111 95.914666-95.971556V252.416c0-52.906667-42.951111-95.914667-95.914666-95.914667zM497.493333 71.452444c58.197333 0 108.373333 35.271111 130.844445 85.048889H367.047111a142.449778 142.449778 0 0 1 130.446222-85.048889z m348.387556 841.955556c0 17.635556-14.449778 32.142222-32.142222 32.142222H181.248a32.199111 32.199111 0 0 1-32.085333-32.142222V252.416c0-17.635556 14.449778-32.085333 32.085333-32.085333h101.944889v96.312889h73.045333V220.330667h284.16v96.312889h73.045334V220.330667h100.295111c17.635556 0 32.142222 14.449778 32.142222 32.085333v661.048889z" p-id="4492"></path></svg>