<?xml version="1.0" encoding="utf-8"?>
<!-- Generator: Adobe Illustrator 23.0.0, SVG Export Plug-In . SVG Version: 6.00 Build 0)  -->
<svg version="1.0" id="图层_1" xmlns="http://www.w3.org/2000/svg" xmlns:xlink="http://www.w3.org/1999/xlink" x="0px" y="0px"
	 viewBox="0 0 1024 1024" style="enable-background:new 0 0 1024 1024;" xml:space="preserve">
<style type="text/css">
	.st0{fill:#FFDE39;stroke:url(#SVGID_1_);stroke-miterlimit:10;}
	.st1{opacity:0.63;fill:url(#SVGID_2_);}
	.st2{fill:url(#SVGID_3_);}
	.st3{fill:#F2A02A;}
	.st4{opacity:0.28;fill:url(#SVGID_4_);}
	.st5{fill:url(#SVGID_5_);stroke:#F2DD46;stroke-width:3;stroke-miterlimit:10;}
	.st6{opacity:0.36;fill:url(#SVGID_6_);}
</style>
<linearGradient id="SVGID_1_" gradientUnits="userSpaceOnUse" x1="63.0921" y1="511.9642" x2="959.5743" y2="511.9642">
	<stop  offset="0" style="stop-color:#F68F35"/>
	<stop  offset="1" style="stop-color:#FF9E50"/>
</linearGradient>
<circle class="st0" cx="511.33" cy="511.96" r="447.74"/>
<linearGradient id="SVGID_2_" gradientUnits="userSpaceOnUse" x1="178.4244" y1="583.6051" x2="959.0746" y2="583.6051">
	<stop  offset="5.586592e-03" style="stop-color:#FFCD6B"/>
	<stop  offset="1" style="stop-color:#FFB958"/>
</linearGradient>
<path class="st1" d="M178.42,811.3c81.96,91.09,200.73,148.4,332.91,148.4c247.28,0,447.74-200.46,447.74-447.74
	c0-117.61-45.41-224.56-119.56-304.46L178.42,811.3z"/>
<g>
	<linearGradient id="SVGID_3_" gradientUnits="userSpaceOnUse" x1="166.6533" y1="511.9639" x2="856.0127" y2="511.9639">
		<stop  offset="0" style="stop-color:#FFD253"/>
		<stop  offset="1" style="stop-color:#FFAC1F"/>
	</linearGradient>
	<path class="st2" d="M511.33,856.64c-92.07,0-178.62-35.85-243.73-100.95c-65.1-65.1-100.95-151.66-100.95-243.73
		c0-92.07,35.85-178.62,100.95-243.73c65.1-65.1,151.66-100.95,243.73-100.95s178.62,35.85,243.73,100.95
		S856.01,419.9,856.01,511.96c0,92.07-35.85,178.62-100.95,243.73S603.4,856.64,511.33,856.64z"/>
	<path class="st3" d="M511.33,171.28c46,0,90.61,9.01,132.61,26.77c40.57,17.16,77,41.72,108.29,73.01
		c31.29,31.29,55.86,67.72,73.01,108.29c17.76,42,26.77,86.61,26.77,132.61s-9.01,90.61-26.77,132.61
		c-17.16,40.57-41.72,77-73.01,108.29c-31.29,31.29-67.72,55.86-108.29,73.01c-42,17.76-86.61,26.77-132.61,26.77
		s-90.61-9.01-132.61-26.77c-40.57-17.16-77-41.72-108.29-73.01c-31.29-31.29-55.86-67.72-73.01-108.29
		c-17.76-42-26.77-86.61-26.77-132.61s9.01-90.61,26.77-132.61c17.16-40.57,41.72-77,73.01-108.29
		c31.29-31.29,67.72-55.86,108.29-73.01C420.72,180.29,465.34,171.28,511.33,171.28 M511.33,163.28
		c-192.57,0-348.68,156.11-348.68,348.68s156.11,348.68,348.68,348.68s348.68-156.11,348.68-348.68S703.9,163.28,511.33,163.28
		L511.33,163.28z"/>
</g>
<linearGradient id="SVGID_4_" gradientUnits="userSpaceOnUse" x1="348.482" y1="517.2598" x2="712.5769" y2="517.2598">
	<stop  offset="0" style="stop-color:#FF7202"/>
	<stop  offset="1" style="stop-color:#91350C"/>
</linearGradient>
<path class="st4" d="M691.17,501.17c-0.19-0.45-0.39-0.92-0.61-1.42c-0.09-0.21-0.19-0.44-0.29-0.66c-0.13-0.3-0.27-0.6-0.41-0.92
	c-0.12-0.28-0.26-0.57-0.39-0.86c-0.12-0.26-0.23-0.51-0.35-0.78c-0.17-0.36-0.34-0.74-0.51-1.12c-0.1-0.21-0.2-0.43-0.3-0.64
	c-0.2-0.44-0.41-0.89-0.63-1.35c-0.07-0.16-0.15-0.31-0.22-0.47c-0.25-0.54-0.51-1.09-0.78-1.65c-0.03-0.06-0.05-0.11-0.08-0.17
	c-3.12-6.59-7.15-14.76-11.56-23.44v0c0,0,0,0,0,0c-4.27-8.43-8.9-17.33-13.39-25.77c-4.39-8.25-8.66-16.05-12.33-22.48
	c-20.87-36.54-36.95-72.02-45.52-92.05c-1.45-3.38-6.91-2.48-7.01,1.15c-0.57,20.97-4.58,55.01-13.47,72.33
	c-1.97-7.13-5.6-37.04-28.91-70.71c-17.43-25.19-25.74-27.68-43.19-41.28c-2.84-2.21-7.06,0.41-5.8,3.63
	c9.45,23.96,17.98,49.57,12.24,90.66c-6.03,43.21-29.61,54.82-38.14,75.73c-5.94,14.55-3.7,22.97,0,32.6
	c3.27,8.52,14.51,18,24.86,25c1.4,0.68,20.96,10.3,44.38,24.08c11.16,6.57,23.18,14.09,34.52,22.03
	c10.04,7.03,19.54,14.39,27.4,21.73l-0.17,0.01c5.97,4.65,8.04,11.82,6.23,18.2c-0.82,2.89-2.43,5.62-4.84,7.88
	c-0.36,0.34-0.79,0.64-1.22,0.94c-0.42,0.33-0.85,0.65-1.31,0.96c-0.37,0.29-0.74,0.58-1.13,0.84c-0.07,0.01-0.14,0-0.21,0.01
	c0,0-0.01,0.01-0.01,0.01c-45.84,33-83.83,48.64-100.08,54.44c-0.55,0.2-1.06,0.37-1.56,0.55c-0.16,0.06-0.34,0.12-0.5,0.17
	c-0.07,0.02-0.13,0.04-0.2,0.07c-1.44,0.5-2.63,0.88-3.58,1.19c-0.29,0.09-0.57,0.18-0.81,0.26c-0.87,0.27-1.47,0.45-1.71,0.52
	c-0.09,0.03-0.14,0.04-0.14,0.04l0.03-0.09h0c-3.85,1.28-7.82,1.4-11.48,0.54c-0.33-0.17-0.66-0.31-0.99-0.48l-0.02-0.01l-0.03-0.01
	c-0.55-0.19-1.09-0.41-1.63-0.64l-6.1-3.36c-0.7-0.62-1.35-1.27-1.94-1.98c-0.01-0.01-0.01-0.01-0.02-0.02
	c-0.05-0.06-0.09-0.13-0.14-0.19c-0.18-0.24-0.34-0.48-0.49-0.72c-0.05-0.07-0.09-0.15-0.14-0.21c-0.05-0.08-0.1-0.15-0.15-0.23
	c-0.38-0.56-0.73-1.09-1.07-1.71c-0.32-0.59-0.58-1.18-0.83-1.82c-0.19-0.47-0.32-1-0.45-1.47c-0.19-0.65-0.45-1.24-0.58-1.88
	c-1.99-9.65-3.34-19.77-4.11-29.89c-0.77-9.47-1.09-19-1.09-28.12c0-8.83,0.26-17.3,0.77-25.06c0-1.31,0.12-2.57,0.19-3.83
	c0-0.04,0.01-0.08,0.01-0.11c0.06-0.59,0.06-1.18,0.13-1.71c1.48-21.59,3.92-36.59,3.92-36.59c0-5.59-1.67-11.12-4.24-16.59
	c-1.09-2.29-2.38-4.59-3.79-6.82c-10.66-17.65-28.32-34.71-29.16-52.3c-0.19-3.59-0.19-7.18-0.06-10.71
	c0.06-1.18,0.13-2.29,0.19-3.47c0.13-2.35,0.32-4.71,0.51-7.06c0.13-1.35,0.32-2.65,0.45-4c0.26-2.12,0.58-4.24,0.9-6.35
	c0.19-1.35,0.45-2.71,0.64-4.06c0.39-2.06,0.77-4.06,1.22-6.06c0.26-1.29,0.51-2.59,0.77-3.88c0.45-2.06,0.96-4.06,1.41-6.06
	c0.32-1.18,0.58-2.35,0.9-3.47c0.51-2.18,1.09-4.3,1.67-6.35c0.26-0.94,0.51-1.88,0.77-2.77c0.77-2.76,1.54-5.47,2.25-8.06
	c0.96-3.18,1.86-6.24,2.7-9.18c0.58-2-0.77-3.47-2.44-4c-0.32-0.12-0.77-0.18-1.16-0.18h-0.06c-0.39,0.06-0.71,0.06-1.09,0.18
	c-0.13,0.06-0.26,0.18-0.45,0.24c-0.19,0.12-0.45,0.18-0.64,0.35c-0.32,0.24-0.64,0.59-0.9,1c-1.41,2.47-2.89,5-4.43,7.59
	c-0.64,1.12-1.41,2.35-2.05,3.53c-0.32,0.59-0.71,1.12-1.09,1.71c-0.45,0.88-0.96,1.76-1.54,2.71c-1.16,1.94-2.38,3.94-3.53,5.94
	c-0.39,0.59-0.77,1.24-1.16,1.82c-7.06,11.83-14.71,24.53-22.35,37.36c-0.51,0.94-1.09,1.94-1.67,2.88c0,0,0,0,0,0.06
	c-1.93,3.24-3.85,6.47-5.72,9.71c0,0.11,0.01,0.22,0.01,0.33c0-0.09-0.01-0.18-0.01-0.27c-3.98,6.82-7.84,13.59-11.43,20.06
	c-0.96,1.65-1.86,3.29-2.7,4.88c-0.9,1.59-1.73,3.18-2.57,4.77c-1.73,3.12-3.34,6.18-4.88,9.18c-0.02,0.27-0.04,0.54-0.06,0.81
	l0.04-0.8c0-0.01,0.01-0.01,0.01-0.02c0,0.01-0.01,0.01-0.01,0.02v0c-0.36,0.69-0.69,1.35-1.04,2.03c-2.07,4.04-4,7.93-5.7,11.57
	c-0.66,1.42-1.29,2.8-1.88,4.14c-1.36,3.07-2.71,6.16-4.04,9.27c-1.33,3.11-2.63,6.23-3.89,9.38c-1.89,4.72-3.67,9.49-5.29,14.33
	c-4.85,14.5-8.18,29.57-8.18,45.54c0,22.41,4.83,43.79,13.58,63.32c0.58,1.3,1.18,2.59,1.8,3.88c1.24,2.57,2.54,5.11,3.91,7.6
	c1.37,2.5,2.81,4.96,4.31,7.39c1.5,2.43,3.07,4.81,4.7,7.16c6.52,9.39,14.03,18.15,22.41,26.14c10.33,9.85,21.96,18.54,34.65,25.84
	c14.33,8.24,29.99,14.71,46.63,19.06c1.49,0.39,3,0.76,4.51,1.12c4.53,1.07,9.13,1.98,13.78,2.73c3.11,0.5,6.24,0.93,9.4,1.28
	c3.16,0.35,6.34,0.63,9.55,0.84c1.6,0.1,3.21,0.19,4.82,0.25c3.23,0.13,6.48,0.18,9.75,0.15c3.27-0.03,6.56-0.14,9.86-0.32
	c16.78-0.95,32.96-4.05,48.24-8.98c0,0,0,0,0,0c3.81-1.23,7.57-2.57,11.26-4.03c40.72-16.03,73.97-45.41,93.12-81.89c0,0,0,0,0,0
	c0,0,0,0,0,0c0,0,0-0.01,0.01-0.01c1.25-2.39,2.44-4.8,3.57-7.25c0.05-0.11,0.1-0.22,0.15-0.34c1.07-2.32,2.07-4.66,3.02-7.03
	c0.1-0.24,0.2-0.49,0.29-0.73c0.88-2.22,1.7-4.47,2.48-6.73c0.13-0.39,0.27-0.77,0.4-1.16c0.71-2.12,1.36-4.25,1.98-6.4
	c0.15-0.53,0.31-1.05,0.46-1.58c0.56-2.02,1.05-4.05,1.53-6.09c0.15-0.65,0.32-1.3,0.46-1.96c0.42-1.95,0.79-3.91,1.13-5.88
	c0.13-0.74,0.28-1.48,0.4-2.22c0.32-1.98,0.57-3.98,0.81-5.98c0.09-0.72,0.2-1.44,0.28-2.17c0.29-2.71,0.5-5.44,0.64-8.19
	C713.94,556.21,706.08,526.7,691.17,501.17z"/>
<linearGradient id="SVGID_5_" gradientUnits="userSpaceOnUse" x1="602.594" y1="710.9977" x2="385.3798" y2="334.7716">
	<stop  offset="0" style="stop-color:#FF7202"/>
	<stop  offset="1" style="stop-color:#F15A24"/>
</linearGradient>
<path class="st5" d="M673.1,487.61c-0.19-0.45-0.39-0.92-0.61-1.42c-0.09-0.21-0.19-0.44-0.29-0.66c-0.13-0.3-0.27-0.6-0.41-0.92
	c-0.12-0.28-0.26-0.57-0.39-0.86c-0.12-0.26-0.23-0.51-0.35-0.78c-0.17-0.36-0.34-0.74-0.51-1.12c-0.1-0.21-0.2-0.43-0.3-0.64
	c-0.2-0.44-0.41-0.89-0.63-1.35c-0.07-0.16-0.15-0.31-0.22-0.47c-0.25-0.54-0.51-1.09-0.78-1.65c-0.03-0.06-0.05-0.11-0.08-0.17
	c-3.12-6.59-7.15-14.76-11.56-23.44v0c0,0,0,0,0,0c-4.27-8.43-8.9-17.33-13.39-25.77c-4.39-8.25-8.66-16.05-12.33-22.48
	c-20.87-36.54-36.95-72.02-45.52-92.05c-1.45-3.38-6.91-2.48-7.01,1.15c-0.57,20.97-4.58,55.01-13.47,72.33
	c-1.97-7.13-5.6-37.04-28.91-70.71c-17.43-25.19-25.74-27.68-43.19-41.28c-2.84-2.21-7.06,0.41-5.8,3.63
	c9.45,23.96,17.98,49.57,12.24,90.66c-6.03,43.21-29.61,54.82-38.14,75.73c-5.94,14.55-3.7,22.97,0,32.6
	c3.27,8.52,14.51,18,24.86,25c1.4,0.68,20.96,10.3,44.38,24.08c11.16,6.57,23.18,14.09,34.52,22.03
	c10.04,7.03,19.54,14.39,27.4,21.73l-0.17,0.01c5.97,4.65,8.04,11.82,6.23,18.2c-0.82,2.89-2.43,5.62-4.84,7.88
	c-0.36,0.34-0.79,0.64-1.22,0.94c-0.42,0.33-0.85,0.65-1.31,0.96c-0.37,0.29-0.74,0.58-1.13,0.84c-0.07,0.01-0.14,0-0.21,0.01
	c0,0-0.01,0.01-0.01,0.01c-45.84,33-83.83,48.64-100.08,54.44c-0.55,0.2-1.06,0.37-1.56,0.55c-0.16,0.06-0.34,0.12-0.5,0.17
	c-0.07,0.02-0.13,0.04-0.2,0.07c-1.44,0.5-2.63,0.88-3.58,1.19c-0.29,0.09-0.57,0.18-0.81,0.26c-0.87,0.27-1.47,0.45-1.71,0.52
	c-0.09,0.03-0.14,0.04-0.14,0.04l0.03-0.09h0c-3.85,1.28-7.82,1.4-11.48,0.54c-0.33-0.17-0.66-0.31-0.99-0.48l-0.02-0.01l-0.03-0.01
	c-0.55-0.19-1.09-0.41-1.63-0.64l-6.1-3.36c-0.7-0.62-1.35-1.27-1.94-1.98c-0.01-0.01-0.01-0.01-0.02-0.02
	c-0.05-0.06-0.09-0.13-0.14-0.19c-0.18-0.24-0.34-0.48-0.49-0.72c-0.05-0.07-0.09-0.15-0.14-0.21c-0.05-0.08-0.1-0.15-0.15-0.23
	c-0.38-0.56-0.73-1.09-1.07-1.71c-0.32-0.59-0.58-1.18-0.83-1.82c-0.19-0.47-0.32-1-0.45-1.47c-0.19-0.65-0.45-1.24-0.58-1.88
	c-1.99-9.65-3.34-19.77-4.11-29.89c-0.77-9.47-1.09-19-1.09-28.12c0-8.83,0.26-17.3,0.77-25.06c0-1.31,0.12-2.57,0.19-3.83
	c0-0.04,0.01-0.08,0.01-0.11c0.06-0.59,0.06-1.18,0.13-1.71c1.48-21.59,3.92-36.59,3.92-36.59c0-5.59-1.67-11.12-4.24-16.59
	c-1.09-2.29-2.38-4.59-3.79-6.82c-10.66-17.65-28.32-34.71-29.16-52.3c-0.19-3.59-0.19-7.18-0.06-10.71
	c0.06-1.18,0.13-2.29,0.19-3.47c0.13-2.35,0.32-4.71,0.51-7.06c0.13-1.35,0.32-2.65,0.45-4c0.26-2.12,0.58-4.24,0.9-6.35
	c0.19-1.35,0.45-2.71,0.64-4.06c0.39-2.06,0.77-4.06,1.22-6.06c0.26-1.29,0.51-2.59,0.77-3.88c0.45-2.06,0.96-4.06,1.41-6.06
	c0.32-1.18,0.58-2.35,0.9-3.47c0.51-2.18,1.09-4.3,1.67-6.35c0.26-0.94,0.51-1.88,0.77-2.77c0.77-2.76,1.54-5.47,2.25-8.06
	c0.96-3.18,1.86-6.24,2.7-9.18c0.58-2-0.77-3.47-2.44-4c-0.32-0.12-0.77-0.18-1.16-0.18h-0.06c-0.39,0.06-0.71,0.06-1.09,0.18
	c-0.13,0.06-0.26,0.18-0.45,0.24c-0.19,0.12-0.45,0.18-0.64,0.35c-0.32,0.24-0.64,0.59-0.9,1c-1.41,2.47-2.89,5-4.43,7.59
	c-0.64,1.12-1.41,2.35-2.05,3.53c-0.32,0.59-0.71,1.12-1.09,1.71c-0.45,0.88-0.96,1.76-1.54,2.71c-1.16,1.94-2.38,3.94-3.53,5.94
	c-0.39,0.59-0.77,1.24-1.16,1.82c-7.06,11.83-14.71,24.53-22.35,37.36c-0.51,0.94-1.09,1.94-1.67,2.88c0,0,0,0,0,0.06
	c-1.93,3.24-3.85,6.47-5.72,9.71c0,0.11,0.01,0.22,0.01,0.33c0-0.09-0.01-0.18-0.01-0.27c-3.98,6.82-7.84,13.59-11.43,20.06
	c-0.96,1.65-1.86,3.29-2.7,4.88c-0.9,1.59-1.73,3.18-2.57,4.77c-1.73,3.12-3.34,6.18-4.88,9.18c-0.02,0.27-0.04,0.54-0.06,0.81
	l0.04-0.8c0-0.01,0.01-0.01,0.01-0.02c0,0.01-0.01,0.01-0.01,0.02v0c-0.36,0.69-0.69,1.35-1.04,2.03c-2.07,4.04-4,7.93-5.7,11.57
	c-0.66,1.42-1.29,2.8-1.88,4.14c-1.36,3.07-2.71,6.16-4.04,9.27c-1.33,3.11-2.63,6.23-3.89,9.38c-1.89,4.72-3.67,9.49-5.29,14.33
	c-4.85,14.5-8.18,29.57-8.18,45.54c0,22.41,4.83,43.79,13.58,63.32c0.58,1.3,1.18,2.59,1.8,3.88c1.24,2.57,2.54,5.11,3.91,7.6
	c1.37,2.5,2.81,4.96,4.31,7.39c1.5,2.43,3.07,4.81,4.7,7.16c6.52,9.39,14.03,18.15,22.41,26.14c10.33,9.85,21.96,18.54,34.65,25.84
	c14.33,8.24,29.99,14.71,46.63,19.06c1.49,0.39,3,0.76,4.51,1.12c4.53,1.07,9.13,1.98,13.78,2.73c3.11,0.5,6.24,0.93,9.4,1.28
	c3.16,0.35,6.34,0.63,9.55,0.84c1.6,0.1,3.21,0.19,4.82,0.25c3.23,0.13,6.48,0.18,9.75,0.15c3.27-0.03,6.56-0.14,9.86-0.32
	c16.78-0.95,32.96-4.05,48.24-8.98c0,0,0,0,0,0c3.81-1.23,7.57-2.57,11.26-4.03c40.72-16.03,73.97-45.41,93.12-81.89c0,0,0,0,0,0
	c0,0,0,0,0,0c0,0,0-0.01,0.01-0.01c1.25-2.39,2.44-4.8,3.57-7.25c0.05-0.11,0.1-0.22,0.15-0.34c1.07-2.32,2.07-4.66,3.02-7.03
	c0.1-0.24,0.2-0.49,0.29-0.73c0.88-2.22,1.7-4.47,2.48-6.73c0.13-0.39,0.27-0.77,0.4-1.16c0.71-2.12,1.36-4.25,1.98-6.4
	c0.15-0.53,0.31-1.05,0.46-1.58c0.56-2.02,1.05-4.05,1.53-6.09c0.15-0.65,0.32-1.3,0.46-1.96c0.42-1.95,0.79-3.91,1.13-5.88
	c0.13-0.74,0.28-1.48,0.4-2.22c0.32-1.98,0.57-3.98,0.81-5.98c0.09-0.72,0.2-1.44,0.28-2.17c0.29-2.71,0.5-5.44,0.64-8.19
	C695.87,542.66,688.01,513.15,673.1,487.61z"/>
<linearGradient id="SVGID_6_" gradientUnits="userSpaceOnUse" x1="251.8243" y1="567.5742" x2="860.0131" y2="567.5742">
	<stop  offset="0" style="stop-color:#FFA953"/>
	<stop  offset="1" style="stop-color:#FF831F"/>
</linearGradient>
<path class="st6" d="M511.33,860.64c192.57,0,348.68-156.11,348.68-348.68c0-91.86-35.8-175.18-93.86-237.46L251.82,744.26
	C315.67,815.53,408.12,860.64,511.33,860.64z"/>
</svg>
