<?xml version="1.0" standalone="no"?><!DOCTYPE svg PUBLIC "-//W3C//DTD SVG 1.1//EN" "http://www.w3.org/Graphics/SVG/1.1/DTD/svg11.dtd"><svg t="1640662855716" class="icon" viewBox="0 0 1024 1024" version="1.1" xmlns="http://www.w3.org/2000/svg" p-id="3041" xmlns:xlink="http://www.w3.org/1999/xlink" width="128" height="128"><defs><style type="text/css"></style></defs><path d="M0 1024V391.048533L389.461333 0H1024v1.109333z" fill="#FF2A20" p-id="3042"></path><path d="M351.624533 582.229333l-89.224533-86.715733-110.660267 107.537067 89.207467 86.698666-21.9648 21.367467L27.648 525.2096l21.9648-21.333333 83.063467 80.708266 110.660266-107.554133-83.0464-80.725333 21.9648-21.333334 191.317334 185.9072-21.9648 21.333334z m147.3536-135.936c-28.586667 27.767467-60.740267 40.448-96.443733 38.024534-33.792-2.2528-65.1264-17.4592-94.071467-45.568-29.098667-28.3136-44.817067-58.845867-47.1552-91.648-2.6624-34.901333 10.359467-66.338133 39.1168-94.293334 28.757333-27.938133 60.928-40.618667 96.4608-37.9904 34.133333 2.6112 65.655467 17.954133 94.600534 46.062934 28.5696 27.784533 44.202667 58.248533 46.882133 91.374933 2.491733 34.7648-10.632533 66.082133-39.389867 94.037333z m-29.4912-164.027733c-24.081067-23.432533-49.4592-36.437333-76.100266-39.0656-26.965333-2.2528-51.438933 7.304533-73.403734 28.637867-22.186667 21.538133-31.8976 45.7728-29.201066 72.6528 2.645333 25.514667 15.872 49.834667 39.645866 72.9088 23.569067 22.920533 48.4864 35.669333 74.769067 38.280533 27.306667 2.6112 52.053333-6.8608 74.205867-28.381867 21.9648-21.333333 31.8976-45.226667 29.764266-71.6288-2.696533-25.838933-15.9232-50.312533-39.68-73.403733z m222.4128-30.737067l-21.725866 21.111467-172.305067-167.458133-67.498667 65.621333-19.029333-18.4832L568.081067 0 587.093333 18.4832l-67.515733 65.621333 172.322133 167.424z" fill="#FFFFFF" p-id="3043"></path></svg>