<?xml version="1.0" standalone="no"?><!DOCTYPE svg PUBLIC "-//W3C//DTD SVG 1.1//EN" "http://www.w3.org/Graphics/SVG/1.1/DTD/svg11.dtd"><svg t="1629971699779" class="icon" viewBox="0 0 1024 1024" version="1.1" xmlns="http://www.w3.org/2000/svg" p-id="1950" xmlns:xlink="http://www.w3.org/1999/xlink" width="128" height="128"><defs><style type="text/css"></style></defs><path d="M916.992 823.12192l-111.85664-193.64352c51.4816-65.52576 79.44704-145.90976 79.44704-230.62016 0-100.03968-38.9632-193.9968-109.63456-264.7808C704.1536 63.2832 610.2016 24.32 510.16192 24.32s-193.9968 38.9632-264.7808 109.63456C174.70464 204.74368 135.74144 298.7008 135.74144 398.74048c0 92.54912 33.34656 179.95264 94.42304 248.51968l-101.44256 175.86176c-12.75392 22.11328-10.99776 49.49504 4.56192 69.7344s41.53856 29.01504 66.10944 22.46656l66.57536-17.78688 17.78688 66.4576c6.5536 24.68864 27.264 42.70592 52.53632 46.10048 2.80576 0.34816 5.49888 0.58368 8.30976 0.58368 22.23104 0 42.94144-11.82208 54.40512-31.47264l118.99392-206.04416c3.2768-0.11776 6.5536-0.11776 9.8304-0.35328l118.99392 206.2848a62.65344 62.65344 0 0 0 54.29248 31.47264c2.688 0 5.49888-0.23552 8.30464-0.58368 25.27744-3.28192 45.87008-21.41696 52.54144-46.10048l17.78688-66.58048 66.45248 17.78688c24.68864 6.5536 50.66752-2.22208 66.10944-22.46656 15.44192-20.23936 17.4336-47.50336 4.67968-69.49888zM298.37824 186.9568c56.63232-56.6272 131.75296-87.75168 211.78368-87.75168 80.03584 0 155.26912 31.12448 211.77856 87.75168 56.63744 56.63232 87.7568 131.74784 87.7568 211.78368 0 65.99168-21.29408 128.8192-60.48768 180.54144l-18.0224 19.8912c-48.55296 53.59104-115.36384 87.63904-188.032 95.70816l-26.43968 2.92352-18.37056-0.70144c-73.59488-2.92352-143.09888-32.29696-195.51744-82.72384l-12.98944-12.5184c-51.13344-55.57248-79.21664-127.18592-79.21664-203.12064 0.00512-80.03072 31.1296-155.26912 87.7568-211.78368z m50.19648 729.53344l-16.14336-60.13952a51.89632 51.89632 0 0 0-24.45312-31.82592 51.98848 51.98848 0 0 0-26.09152-7.01952c-4.56192 0-9.12896 0.58368-13.69088 1.75616l-60.13952 16.14336 78.62784-136.19712a370.92864 370.92864 0 0 0 148.94592 66.57536l-87.05536 150.7072z m428.8256-97.2288c-27.84256-7.49056-56.74496 9.12384-64.23552 37.08928l-16.14336 60.25728-90.09664-155.96544a370.35008 370.35008 0 0 0 143.91296-75.12064l86.58432 150.00064-60.02176-16.26112z" fill="" p-id="1951"></path><path d="M510.16192 567.22944c92.90752 0 168.48896-75.58656 168.48896-168.48896 0-92.90752-75.58656-168.48896-168.48896-168.48896-92.9024 0-168.48896 75.58656-168.48896 168.48896 0 92.9024 75.58656 168.48896 168.48896 168.48896z m0-262.0928c51.59936 0 93.60384 42.00448 93.60384 93.60384s-42.00448 93.60384-93.60384 93.60384-93.60384-42.00448-93.60384-93.60384c-0.00512-51.59936 42.00448-93.60384 93.60384-93.60384z" fill="" p-id="1952"></path></svg>