<?xml version="1.0" standalone="no"?><!DOCTYPE svg PUBLIC "-//W3C//DTD SVG 1.1//EN" "http://www.w3.org/Graphics/SVG/1.1/DTD/svg11.dtd"><svg t="1629971183791" class="icon" viewBox="0 0 1024 1024" version="1.1" xmlns="http://www.w3.org/2000/svg" p-id="2810" xmlns:xlink="http://www.w3.org/1999/xlink" width="128" height="128"><defs><style type="text/css"></style></defs><path d="M528.676571 903.68c0 42.569143 25.6 72.411429 46.957715 80.969143 4.242286 4.242286 21.211429 17.042286 42.569143 29.842286-38.326857 4.242286-80.969143 4.242286-132.096 4.242285-128 0-221.622857-4.242286-289.865143-12.8C-55.222857 971.849143 21.357714 890.88 34.230857 839.68 51.346286 720.457143 302.811429 660.699429 375.369143 605.257143c8.484571-8.484571 21.211429-21.284571 21.211428-29.842286 0-29.842286-16.969143-46.811429-16.969142-46.811428S251.757714 447.561143 256 242.980571C260.169143 153.453714 307.126857 0 477.549714 0h8.557715c166.180571 0 217.380571 157.696 221.622857 242.980571 4.242286 217.380571-123.611429 285.549714-123.611429 285.549715v4.315428a119.954286 119.954286 0 0 0-55.442286 102.253715v268.580571z m383.634286-306.907429c25.6 0 42.642286 17.042286 42.642286 38.326858v268.580571c0 8.484571-8.484571 12.726857-8.484572 12.726857l-144.969142 98.011429c-8.484571 8.557714-12.8 8.557714-17.042286 8.557714-4.242286 0-8.484571 0-17.042286-4.242286l-144.896-98.011428s-8.557714-8.557714-8.557714-17.042286V635.099429c0-21.284571 21.211429-38.326857 42.642286-38.326858h255.707428z m-4.242286 149.211429c8.557714-4.315429 4.242286-17.115429-8.484571-21.357714a1544.777143 1544.777143 0 0 1-64-12.8s-21.284571-34.084571-34.084571-55.369143c-12.8-17.115429-12.8-17.115429-17.042286-17.115429-4.242286 0-4.242286 0-21.284572 21.357715-12.8 21.284571-34.157714 55.369143-34.157714 55.369142s-38.326857 8.557714-63.926857 12.8c-12.8 0-12.8 8.557714-8.484571 17.042286 17.042286 17.042286 46.811429 51.2 46.811428 51.2s-4.169143 34.084571-8.484571 59.684572a18.285714 18.285714 0 0 0 17.042285 17.042285h8.557715c25.6-12.8 55.442286-25.6 63.926857-29.842285 4.242286 4.242286 38.4 21.284571 59.684571 29.842285h8.484572a18.285714 18.285714 0 0 0 17.115428-17.042285c-4.388571-25.6-8.557714-59.684571-8.557714-59.684572s29.842286-29.842286 46.811429-51.2v0.073143z" p-id="2811"></path></svg>