<?xml version="1.0" standalone="no"?><!DOCTYPE svg PUBLIC "-//W3C//DTD SVG 1.1//EN" "http://www.w3.org/Graphics/SVG/1.1/DTD/svg11.dtd"><svg t="1602212299561" class="icon" viewBox="0 0 1024 1024" version="1.1" xmlns="http://www.w3.org/2000/svg" p-id="3281" xmlns:xlink="http://www.w3.org/1999/xlink" width="128" height="128"><defs><style type="text/css"></style></defs><path d="M1024 512C1024 229.2224 794.7776 0 512 0S0 229.2224 0 512s229.2224 512 512 512 512-229.2224 512-512zM69.8112 512c0-244.1728 197.9904-442.1888 442.1888-442.1888 244.224 0 442.1888 198.016 442.1888 442.1888 0 244.224-197.9904 442.1888-442.1888 442.1888-244.224 0-442.1888-197.9648-442.1888-442.1888z m375.4752-55.0912l-57.6512-57.6256h333.824a34.9184 34.9184 0 0 0 0-69.8368H384.7168l57.6768-57.6a34.9696 34.9696 0 0 0-49.3824-49.4336l-115.2 115.2c-5.376 5.376-8.1152 12.0576-9.216 18.9952-0.1024 0.384-0.2048 0.768-0.256 1.1776-0.2048 1.408-0.4608 2.816-0.4608 4.2496-0.0512 0.768-0.2304 1.536-0.2304 2.3296 0 11.904 5.9904 22.4 15.104 28.6976l113.152 113.2032a34.9184 34.9184 0 0 0 49.3824-49.3568z m300.928 229.4528c5.2992-5.2992 8.0128-11.9296 9.1648-18.7648l0.3584-1.536c0.1536-1.3568 0.384-2.6624 0.4096-4.0192 0.0256-0.8192 0.2304-1.5872 0.2304-2.432 0-11.8784-5.9648-22.3488-15.0272-28.672l-113.2544-113.2288a34.9184 34.9184 0 0 0-49.3824 49.3568l57.6256 57.6512H302.592a34.8928 34.8928 0 1 0 0 69.8112h336.7168l-57.6512 57.6a34.9696 34.9696 0 0 0 0 49.3824 34.8928 34.8928 0 0 0 49.3824 0.0512l115.2-115.2z"></path></svg>