<?xml version="1.0" standalone="no"?><!DOCTYPE svg PUBLIC "-//W3C//DTD SVG 1.1//EN" "http://www.w3.org/Graphics/SVG/1.1/DTD/svg11.dtd"><svg t="1602212368406" class="icon" viewBox="0 0 1024 1024" version="1.1" xmlns="http://www.w3.org/2000/svg" p-id="4860" xmlns:xlink="http://www.w3.org/1999/xlink" width="128" height="128"><defs><style type="text/css"></style></defs><path d="M1000.05 160.882c0-67.361-54.56-121.921-121.92-121.921-53.889 0-99.121 35.235-115.215 83.76-70.104-50.842-156.059-81.2-249.268-81.2-94.124 0-180.87 30.967-251.339 82.723C246.64 74.927 201.104 38.96 146.605 38.96c-67.361 0-121.921 54.56-121.921 121.92 0 62.12 46.574 112.777 106.62 120.397-27.372 56.145-43.1 118.994-43.1 185.686 0 192.757 128.26 355.338 304.07 407.642-0.913 5.853-1.829 11.705-1.829 17.8 0 67.361 54.561 121.921 121.921 121.921s121.921-54.56 121.921-121.92c0-5.854-0.914-11.522-1.707-17.191 177.03-51.45 306.509-214.581 306.509-408.252 0-66.752-15.788-129.725-43.222-185.93 58.829-8.656 104.183-58.888 104.183-120.152z m-740.363 45.17c65.714-63.946 155.267-103.57 253.96-103.57 96.989 0 185.077 38.344 250.427 100.34 1.645 4.389 3.535 8.596 5.608 12.741L630.69 327.303c-31.943-27.37-72.97-44.501-118.325-44.501-48.951 0-93.208 19.507-126.005 50.84l-135.819-109.79c3.475-5.73 6.645-11.582 9.145-17.8z m252.68 137.71c67.24 0 121.922 54.683 121.922 121.922s-54.682 121.92-121.921 121.92c-67.24 0-121.921-54.682-121.921-121.92s54.681-121.921 121.92-121.921zM85.646 160.883c0-33.59 27.372-60.961 60.96-60.961 33.59 0 60.961 27.37 60.961 60.96 0 5-1.707 9.45-2.865 14.142-4.633 18.959-17.191 34.81-34.93 42.125-7.133 2.988-14.935 4.694-23.166 4.694-33.59-0.002-60.96-27.372-60.96-60.96z m330.831 657.03c-153.923-42.673-267.371-183.614-267.371-350.95 0-73.335 21.946-141.489 59.375-198.73l-2.073-1.707c1.524-0.854 3.17-1.584 4.634-2.5-0.914 1.342-1.646 2.805-2.561 4.206l141.734 114.545c-12.803 24.994-20.727 52.914-20.727 82.906 0 90.526 65.96 165.203 152.339 179.771l-8.961 132.102c-22.617 7.804-42.001 21.886-56.389 40.357z m95.892 135.454c-33.588 0-60.961-27.372-60.961-60.961 0-1.769 0.853-3.23 0.974-4.877 2.622-31.211 28.103-56.083 59.985-56.083 32.004 0 57.607 25.054 60.046 56.45 0.122 1.584 0.914 2.925 0.914 4.51 0.001 33.59-27.37 60.96-60.958 60.96z m96.317-134.907c-18.044-23.468-44.136-40.233-74.371-45.719l8.657-127.224c86.318-14.631 152.277-89.307 152.277-179.832 0-33.529-9.692-64.558-25.42-91.563L809.61 261.71l3.11-2.5c1.584 2.255 3.23 4.572 4.755 6.888 38.221 57.607 60.655 126.615 60.655 200.865 0 168.067-114.485 309.496-269.445 351.496zM878.13 221.84c-7.133 0-13.778-1.829-20.178-4.084-20.3-7.192-34.748-24.75-38.65-46.329-0.67-3.536-2.133-6.827-2.133-10.546 0-33.59 27.37-60.961 60.961-60.961 33.588 0 60.961 27.37 60.961 60.96s-27.372 60.96-60.96 60.96z" p-id="4861"></path></svg>