<?xml version="1.0" standalone="no"?><!DOCTYPE svg PUBLIC "-//W3C//DTD SVG 1.1//EN" "http://www.w3.org/Graphics/SVG/1.1/DTD/svg11.dtd"><svg class="icon" width="64px" height="64.00px" viewBox="0 0 1024 1024" version="1.1" xmlns="http://www.w3.org/2000/svg"><path d="M771.23128889 45.96622222h-25.63185778c-14.56355555 0-25.63185778 11.06830222-25.63185778 25.63185778 0 19.80643555-15.72864 36.11761778-36.11761778 36.11761778h-343.6999111c-20.38897778 0-36.11761778-16.89372445-36.11761778-36.11761778v-4.07779555c0-1.16508445 0-2.33016889-0.58254222-3.49525334-1.16508445-3.49525333-2.91271111-6.40796445-5.82542223-9.32067556-2.33016889-2.91271111-5.82542222-4.66033778-8.15559111-6.40796444-3.49525333-1.74762667-6.99050667-2.33016889-10.48576-2.33016889h-25.63185778C167.71754667 45.96622222 98.39502222 115.28874667 98.39502222 200.92245333v621.57255112c0 85.63370667 69.32252445 154.95623111 154.95623111 154.9562311h517.88003556c85.63370667 0 154.95623111-69.32252445 154.95623111-154.9562311V200.92245333c0.58254222-85.63370667-69.32252445-154.95623111-154.95623111-154.95623111z m3.49525333 660.60288h-524.288c-14.56355555 0-25.63185778-11.65084445-25.63185777-25.63185777 0-14.56355555 11.65084445-25.63185778 25.63185777-25.63185778h524.288c14.56355555 0 25.63185778 11.06830222 25.63185778 25.63185778s-11.65084445 25.63185778-25.63185778 25.63185777z m0-168.93724444h-524.288c-14.56355555 0-25.63185778-11.65084445-25.63185777-25.63185778 0-13.98101333 11.65084445-25.63185778 25.63185777-25.63185778h524.288c14.56355555 0 25.63185778 11.65084445 25.63185778 25.63185778 0 14.56355555-11.65084445 25.63185778-25.63185778 25.63185778z m0-168.93724445h-524.288c-14.56355555 0-25.63185778-11.65084445-25.63185777-25.63185778 0-14.56355555 11.65084445-25.63185778 25.63185777-25.63185777h524.288c14.56355555 0 25.63185778 11.65084445 25.63185778 25.63185777s-11.65084445 25.63185778-25.63185778 25.63185778z"  /></svg>
