<?xml version="1.0" standalone="no"?><!DOCTYPE svg PUBLIC "-//W3C//DTD SVG 1.1//EN" "http://www.w3.org/Graphics/SVG/1.1/DTD/svg11.dtd"><svg viewBox="0 0 1024 1024" version="1.1" xmlns="http://www.w3.org/2000/svg"><path d="M742.191194 832.894498 281.848715 832.894498c-23.277146 0-42.174542 20.87033-42.174542 48.400337 0 27.551496 18.897396 48.487318 42.174542 48.487318l460.34248 0c23.232121 0 42.131563-20.935822 42.131563-48.487318C784.322757 853.788363 765.423315 832.894498 742.191194 832.894498L742.191194 832.894498 742.191194 832.894498 742.191194 832.894498M944.170349 285.008172c-3.52222-3.759627-7.476275-7.237845-12.025894-10.393721-15.633049-11.381212-34.617425-18.102287-55.145971-18.102287-53.423747 0-96.800673 45.436842-96.800673 101.399411 0 33.839713 15.845896 63.727417 40.11258 82.153068-17.09126 20.656459-79.536474 93.171006-109.258403 84.324524-45.778626-13.548574-55.744605-213.120912-56.473199-228.689493 46.124504-7.751544 81.381495-49.51574 81.381495-100.063997 0-56.021921-43.285852-101.417831-96.759741-101.417831-53.464679 0-96.755648 45.39591-96.755648 101.417831 0 38.780235 20.74344 72.408123 51.233871 89.521896-10.778484 28.216645-53.93847 135.947252-83.3575 135.583978-30.448476-0.38681-73.52762-112.349811-82.715887-137.25913 28.946262-17.565051 48.441269-50.288337 48.441269-87.846744 0-56.021921-43.330878-101.417831-96.800673-101.417831-53.42477 0-96.755648 45.39591-96.755648 101.417831 0 44.598754 27.440979 82.304518 65.578578 95.964632 5.497201 2.361791 11.509125 3.949962 18.293645 4.593622 0 0-18.981307 208.980615-62.443168 219.99139-37.192064 9.450233-86.579891-54.860469-101.18247-75.348082 24.823362-18.379603 41.056068-48.593741 41.056068-82.926688 0-55.962569-43.331901-101.399411-96.800673-101.399411-8.072863 0-15.97381 1.200338-23.491017 3.134387-14.299681 1.52575-46.509267 9.53619-61.887512 50.592258-7.255241 14.2127-11.378142 30.447453-11.378142 47.671743 0 23.190165 7.42818 44.470841 19.927865 61.539588 6.484691 9.833973 15.417131 19.025309 27.785833 25.855878 14.388708 8.888438 31.093159 14.129812 49.042973 14.129812 5.027503 0 9.923-0.558725 14.730493-1.332345 3.480264 27.699875 44.536332 299.120588 101.655238 302.128085 0.171915-0.171915 430.578596 0 497.233692 0 62.014402 0 105.731066-293.194622 105.731066-293.194622l0.988514-8.117888c3.224438 0.302899 6.441713 0.51677 9.66308 0.51677 17.434068 0 33.756825-4.941546 47.841611-13.356193 16.83748-5.928013 32.55444-18.596544 39.254026-44.191478 6.186909-13.273305 9.66308-28.131711 9.66308-43.976584C973.758224 329.281515 962.378036 303.432801 944.170349 285.008172L944.170349 285.008172 944.170349 285.008172 944.170349 285.008172M944.170349 285.008172" /></svg>