<?xml version="1.0" standalone="no"?><!DOCTYPE svg PUBLIC "-//W3C//DTD SVG 1.1//EN" "http://www.w3.org/Graphics/SVG/1.1/DTD/svg11.dtd"><svg t="1628752775496" class="icon" viewBox="0 0 1024 1024" version="1.1" xmlns="http://www.w3.org/2000/svg" p-id="2743" xmlns:xlink="http://www.w3.org/1999/xlink" width="128" height="128"><defs><style type="text/css"></style></defs><path d="M938.453333 681.258667c-6.4-90.624-65.408-166.570667-99.541333-205.866667 4.693333-11.392 16.256-77.568-28.288-122.709333 0.085333-1.109333 0.085333-2.176 0.085333-3.2 0-178.048-123.008-306.261333-277.376-306.816-154.368 0.597333-277.376 128.768-277.376 306.773333 0 1.109333 0 2.176 0.085334 3.242667-44.544 45.141333-32.981333 111.317333-28.288 122.709333-34.133333 39.296-93.141333 115.242667-99.541334 205.909333-1.152 23.850667 2.432 58.538667 13.696 73.984 13.781333 18.816 51.584-3.797333 78.592-63.872 7.509333 27.818667 24.874667 70.357333 64.170667 124.288-65.749333 15.445333-84.48 82.261333-62.378667 118.784C237.909333 960.170667 273.578667 981.333333 335.104 981.333333c109.482667 0 157.866667-30.293333 179.413333-51.413333 4.394667-4.608 10.752-6.826667 18.816-6.826667 8.106667 0 14.421333 2.218667 18.773334 6.826667 21.632 21.12 69.973333 51.413333 179.413333 51.413333 61.568 0 97.237333-21.162667 112.810667-46.890666 22.144-36.48 3.413333-103.253333-62.293334-118.741334 39.253333-53.973333 56.618667-96.426667 64.128-124.288 27.050667 60.117333 64.810667 82.688 78.592 63.872 11.306667-15.445333 14.848-50.176 13.696-73.984z" p-id="2744"></path></svg>