<?xml version="1.0" standalone="no"?><!DOCTYPE svg PUBLIC "-//W3C//DTD SVG 1.1//EN" "http://www.w3.org/Graphics/SVG/1.1/DTD/svg11.dtd"><svg t="1628505576111" class="icon" viewBox="0 0 1024 1024" version="1.1" xmlns="http://www.w3.org/2000/svg" p-id="13276" xmlns:xlink="http://www.w3.org/1999/xlink" width="128" height="128"><defs><style type="text/css"></style></defs><path d="M580.8 546.7c-38.2-3.2-76.6-0.6-114.9-1.3-5.7-0.1-5.1 3.5-5.1 7.1v76.4c0 24.6 0.2 49.3-0.2 73.9-0.1 7.2 1.2 10.1 9.3 9.7 15.3-0.7 30.6-0.2 46-0.2 24.1 0 48.1 0.6 72-3.6 50-8.7 79.1-36.1 86.3-81.5 3-18.5-2.5-33.9-16-46.8-21.6-20.7-48.1-31.2-77.4-33.7zM460.7 466.6c-0.1 5.6 1.4 7.6 7.3 7.5 21.3-0.3 42.7 0.3 64-0.2 26.7-0.6 52-7.3 75-21.1 21.9-13.1 33.2-32.7 32.9-58.5-0.4-26.2-12.4-45.9-35.3-57.8-19-9.9-39.8-15.6-61.4-16.1-25.2-0.6-50.3 0-75.5-0.2-5.4-0.1-7 1.6-6.9 7 0.3 23.3 0.1 46.5 0.1 69.8 0 23.1 0.1 46.3-0.2 69.6z" p-id="13277"></path><path d="M512 0C229.3 0 0 229.2 0 512s229.2 512 512 512 512-229.2 512-512S794.8 0 512 0z m254.1 745.7c-18 16.1-39.8 24.8-62.1 32.4-31.3 10.7-63.7 15.6-96.5 18-11.8 0.9-11.8 1.1-11.8 13 0 33.7-0.1 67.3 0.1 101 0.1 6.2-1.8 7.9-7.9 7.8-19.4-0.4-38.9-0.3-58.3 0-5.7 0.1-7.5-1.7-7.4-7.4 0.2-34.8-0.1-69.5 0.2-104.3 0.1-6.1-1.5-8.1-7.8-7.8-12.6 0.5-25.2 0.5-37.8 0-6.2-0.2-7.9 1.6-7.9 7.8 0.3 34.5-0.1 69 0.3 103.4 0.1 7.1-1.6 9.5-9 9.3-17.8-0.6-35.6-0.5-53.4 0-6.5 0.2-7.7-2.2-7.7-8 0.2-34.8-0.1-69.5 0.2-104.3 0.1-6.5-1.8-8.3-8.3-8.2-45.7 0.3-91.4 0-137.1 0.3-7.2 0-8.6-1.9-7.4-8.9 4-23.4 7.5-47 10.8-70.6 0.8-5.4 2.7-7.3 8.2-7.2 20.8 0.3 41.6-0.1 62.4 0.2 5.9 0.1 7.3-1.9 7.3-7.5-0.1-125.1-0.2-250.1 0-375.2 0-6.1-2.4-7.1-7.7-7.1-26.5 0.2-53.1-0.1-79.6 0.2-6.2 0.1-7.9-2-7.8-8 0.3-21.6 0.4-43.2-0.1-64.8-0.1-7 2.1-8.7 8.8-8.7 47.9 0.3 95.8 0 143.7 0.3 7.1 0 9.3-1.6 9.2-9-0.4-34.5 0-69-0.3-103.4 0-6.1 1-8.6 7.9-8.4 16.9 0.6 33.9 0.4 50.9 0.1 5.7-0.1 7.4 1.4 7.3 7.3-0.3 35.3 0 70.6-0.3 105.9 0 6.3 1.3 8.6 8.1 8.4 13.9-0.5 27.9-0.5 41.9 0 6.5 0.2 7.7-2.2 7.7-8.1-0.2-34.8 0.1-69.5-0.3-104.3-0.1-7.8 2.4-9.4 9.6-9.2 18 0.5 36.1 0.4 54.2 0 5.8-0.1 7.3 1.5 7.3 7.3-0.3 34.8 0.2 69.5-0.4 104.3-0.1 8.5 2.6 10.3 10.4 10.8 33.2 2.2 65.7 7.6 95.8 23 49.8 25.6 73.4 66.8 72.9 122.3-0.2 22.7-10.5 41.6-23.4 59.3-10.4 14.4-22.1 27.8-35.9 40.7 12.5 5 23.5 11 34.2 17.4 47.3 27.8 70.5 69.7 68.4 123.9-1.5 45-17.1 85-51.6 116z" p-id="13278"></path></svg>