<?xml version="1.0" standalone="no"?><!DOCTYPE svg PUBLIC "-//W3C//DTD SVG 1.1//EN" "http://www.w3.org/Graphics/SVG/1.1/DTD/svg11.dtd"><svg t="1628505486070" class="icon" viewBox="0 0 1024 1024" version="1.1" xmlns="http://www.w3.org/2000/svg" p-id="12331" xmlns:xlink="http://www.w3.org/1999/xlink" width="128" height="128"><defs><style type="text/css"></style></defs><path d="M1019.74 448.799c-4.261-36.927-12.783-72.433-25.565-107.94-21.304-59.65-52.55-112.199-92.316-159.067-46.869-55.39-103.679-99.418-169.01-130.663-44.028-21.304-89.476-35.506-136.344-44.028-9.942-1.42-18.463-2.84-28.405-4.26-7.101-1.42-14.203-1.42-21.304-1.42C531.173 0 515.551 0 499.928 0c-9.942 0-19.884 1.42-29.825 1.42-53.97 4.261-105.099 17.043-154.808 36.927-51.129 21.303-96.577 48.288-136.344 83.794-59.65 49.71-105.098 109.36-136.344 180.372C24.144 343.7 11.362 387.728 4.261 431.756 2.84 440.277 1.42 450.219 0 458.74v61.07c1.42 4.261 0 9.942 0 14.203 1.42 25.564 4.26 51.129 8.521 76.693 12.783 62.491 35.507 119.301 69.593 173.27 35.506 56.81 80.954 103.679 133.503 143.446 49.709 35.506 103.678 62.491 161.909 78.114 25.564 7.101 51.129 12.782 78.113 15.623 9.942 1.42 18.464 1.42 28.405 2.84h38.347c4.26-1.42 9.942 0 14.203 0 14.202 0 28.405-1.42 42.607-2.84 29.825-4.261 58.23-9.942 86.635-18.464 73.853-22.724 139.185-59.65 195.995-110.78 66.752-61.07 113.62-133.503 140.605-218.718 9.941-28.405 15.622-56.81 19.883-86.635 1.42-9.942 2.84-21.304 2.84-31.245 1.42-18.464 2.841-35.507 1.42-53.97 0-17.043 0-35.506-2.84-52.55zM749.891 269.847c-12.782 2.84-24.144-1.42-34.086-9.941-5.681-5.681-11.362-12.783-14.203-19.884-1.42-4.26-4.26-8.521-7.1-12.782-5.682-7.101-12.783-9.942-21.305-8.522-7.1 1.42-14.202 4.261-19.883 9.942-19.884 19.884-32.666 44.028-41.187 71.013-9.942 31.245-17.043 63.91-24.145 93.736-1.42 9.942-4.26 18.463-5.68 28.405 0 1.42 0 2.84 1.42 2.84 28.405 4.261 58.23 8.522 85.215 12.783 12.782 1.42 25.564 4.26 38.346 5.68 1.42 0 2.84 1.421 1.42 2.841-2.84 15.623-4.26 31.246-7.1 46.869 0 1.42-1.42 2.84-2.841 1.42-22.724-2.84-45.448-7.101-68.172-9.942-19.884-2.84-38.347-5.68-58.23-8.521-1.42 0-2.84 0-2.84 2.84-2.841 17.043-5.682 35.506-8.522 52.55 0 1.42 0 2.84 2.84 2.84 12.782 1.42 26.985 4.26 39.767 5.68 19.884 2.841 38.347 5.682 58.23 8.522l29.826 4.261c1.42 0 2.84 0 2.84 2.84-2.84 15.623-4.26 31.246-7.101 46.869 0 1.42-1.42 2.84-2.84 1.42-11.363-1.42-22.725-2.84-32.666-4.26-19.884-2.841-38.347-5.682-58.23-8.522-12.783-1.42-26.985-4.26-39.768-5.681-2.84 0-2.84 0-4.26 2.84-8.522 35.507-17.043 71.013-28.405 103.679-5.681 19.883-12.783 39.767-22.724 59.65-7.102 14.203-15.623 26.985-25.565 38.347-14.202 18.463-29.825 34.086-49.709 46.868-14.202 8.522-29.825 15.623-46.868 17.043-17.043 1.42-34.086-1.42-49.709-8.521-14.202-5.681-25.564-14.203-36.926-24.145-5.681-5.68-11.362-12.782-12.782-21.303-2.84-12.783 7.1-26.985 19.883-29.826h7.101c17.043 0 28.405 8.522 36.927 21.304 2.84 2.84 4.26 7.101 5.68 11.362l4.262 8.522c7.1 9.941 15.622 14.202 28.405 9.941 8.521-2.84 14.202-8.521 19.883-15.622 12.782-17.043 21.304-34.086 28.405-53.97 12.782-31.245 21.304-63.911 28.405-93.736 7.101-26.985 12.782-53.97 18.463-79.534 0-1.42 0-2.84-1.42-2.84-14.202-1.421-29.825-4.262-44.028-7.102-18.463-2.84-36.926-5.681-53.97-8.522l-25.564-4.26c-2.84 0-2.84-1.42-2.84-2.84 1.42-12.783 4.26-25.565 5.68-38.348 0-2.84 1.421-5.68 1.421-7.1 0-1.421 1.42-2.841 2.84-2.841 5.682 1.42 12.783 1.42 18.464 2.84 19.883 2.84 41.187 5.681 61.07 8.522 15.623 2.84 31.246 4.26 46.869 7.1 1.42 0 2.84 0 2.84-1.42l8.522-51.128c1.42-4.261 1.42-4.261-2.84-4.261-15.623-2.84-31.246-4.26-46.869-7.101-19.883-2.84-38.347-5.681-58.23-8.522-7.101-1.42-12.782-1.42-19.884-2.84-2.84 0-2.84 0-2.84-4.261 2.84-15.623 4.26-31.246 7.101-45.448 0-1.42 1.42-2.84 2.84-1.42 14.203 2.84 29.826 4.26 44.028 7.1 21.304 2.841 41.188 5.682 62.491 8.522l25.565 4.261c2.84 0 2.84 0 2.84-2.84 4.261-17.043 8.522-34.086 14.203-51.13 7.101-25.564 17.043-49.708 28.405-72.432 7.101-14.203 15.623-26.985 25.564-38.347 12.783-15.623 26.985-31.245 45.448-42.607 15.623-9.942 31.246-17.043 49.71-19.884 14.202-1.42 29.824 0 42.607 5.681 17.043 7.101 34.086 15.623 46.868 29.825 4.26 5.681 8.521 11.362 9.942 18.464 1.42 8.521-8.522 24.144-21.304 26.984z" p-id="12332"></path></svg>