<?xml version="1.0" standalone="no"?><!DOCTYPE svg PUBLIC "-//W3C//DTD SVG 1.1//EN" "http://www.w3.org/Graphics/SVG/1.1/DTD/svg11.dtd"><svg t="1628505658622" class="icon" viewBox="0 0 1024 1024" version="1.1" xmlns="http://www.w3.org/2000/svg" p-id="15689" xmlns:xlink="http://www.w3.org/1999/xlink" width="128" height="128"><defs><style type="text/css"></style></defs><path d="M512 512m-512 0a512 512 0 1 0 1024 0 512 512 0 1 0-1024 0Z" p-id="15690"></path><path d="M132.949333 745.130667c11.2128-8.8064 21.282133-16.964267 31.6928-24.644267 32.324267-23.842133 64.477867-48.008533 97.604267-71.048533 37.751467-26.231467 77.1072-49.92 117.282133-72.157867a1487.701333 1487.701333 0 0 1 126.225067-62.088533c20.650667-8.942933 41.608533-16.9472 62.4128-25.258667 10.5472-4.181333 21.435733-7.68 32-11.861333 1.911467-0.631467 3.191467-2.7136 4.778667-3.9936-0.3072-0.631467-0.785067-1.28-1.109334-1.911467-6.5536 1.5872-12.970667 3.362133-19.524266 4.949333-15.018667 4.010667-30.225067 8.004267-45.1072 12.322134-18.722133 5.290667-37.597867 10.564267-56.149334 16.4864-25.2928 8.004267-50.568533 16.162133-75.3664 25.275733-42.0864 15.36-83.370667 32.648533-120.661333 58.077867-3.822933 2.730667-7.509333 5.597867-12.151467 8.96-0.477867-2.730667-0.802133-4.949333-1.28-7.031467a213.504 213.504 0 0 1 0.477867-80.008533c6.4-33.28 19.677867-64 38.570667-92.16a280.337067 280.337067 0 0 1 40.311466-47.684267c26.555733-25.105067 55.842133-46.08 90.248534-58.709333 14.557867-5.444267 29.917867-8.635733 45.1072-12.322134 34.4064-8.157867 69.614933-9.762133 104.6528-9.762133 23.671467 0 47.5136 2.082133 71.031466 4.488533 18.244267 1.911467 36.317867 4.949333 54.408534 8.789334 23.3472 4.949333 46.557867 10.888533 69.597866 17.117866 22.562133 6.0928 45.124267 12.629333 67.515734 19.370667 10.069333 3.037867 20.002133 6.7072 30.088533 10.3936 6.5536 2.389333 6.7072 2.56 3.669333 8.8064-8.482133 17.271467-16.7936 34.56-25.6 51.677867-21.282133 41.762133-43.997867 82.875733-69.597866 122.231466-16.964267 26.077867-34.235733 51.848533-52.957867 76.8a672.3072 672.3072 0 0 1-48.162133 56.32c-31.197867 33.28-68.795733 56.797867-112.315734 70.877867-33.757867 11.042133-68.317867 16.64-103.8336 14.882133-32.648533-1.604267-64-8.311467-93.764266-22.237866a202.1888 202.1888 0 0 1-68.795734-52.804267c-2.4064-2.7136-4.9664-3.191467-8.174933-2.8672-14.711467 1.4336-28.791467 5.4272-42.3936 11.042133-24.797867 10.24-49.442133 20.7872-73.915733 31.829334-19.0464 8.635733-37.12 18.244267-56.797867 27.835733z" fill="#F7F7F7" p-id="15691"></path></svg>