<?xml version="1.0" standalone="no"?><!DOCTYPE svg PUBLIC "-//W3C//DTD SVG 1.1//EN" "http://www.w3.org/Graphics/SVG/1.1/DTD/svg11.dtd"><svg t="1632364835549" class="icon" viewBox="0 0 1024 1024" version="1.1" xmlns="http://www.w3.org/2000/svg" p-id="30502" xmlns:xlink="http://www.w3.org/1999/xlink" width="128" height="128"><defs><style type="text/css"></style></defs><path d="M512 0C229.068 0 0 229.068 0 512s229.068 512 512 512 512-229.068 512-512S794.932 0 512 0z m166.918 487.14v57.415H547.514v79.907h131.404v57.415H547.514v114.83h-71.028v-114.83H340.939v-57.415h134.955v-79.907H340.939V487.14h113.646L315.487 227.292h81.683l97.073 202.433c5.327 11.246 11.246 25.452 18.349 43.21h2.368c4.735-14.207 11.246-29.004 18.94-44.986l97.665-200.657h76.948L567.047 487.14h111.87z" p-id="30503"></path></svg>