<?xml version="1.0" standalone="no"?><!DOCTYPE svg PUBLIC "-//W3C//DTD SVG 1.1//EN" "http://www.w3.org/Graphics/SVG/1.1/DTD/svg11.dtd"><svg t="1602669978299" class="icon" viewBox="0 0 1024 1024" version="1.1" xmlns="http://www.w3.org/2000/svg" p-id="2445" xmlns:xlink="http://www.w3.org/1999/xlink" width="128" height="128"><defs><style type="text/css"></style></defs><path d="M896 0H128C57.6 0 0 57.6 0 128v768c0 70.4 57.6 128 128 128h320V576H128c-35.2 0-64-28.8-64-64s28.8-64 64-64h320V128c0-35.2 28.8-64 64-64s64 28.8 64 64v320h448V128c0-70.4-57.6-128-128-128zM166.4 723.2c-12.8-12.8-12.8-32 0-44.8s32-12.8 44.8 0L256 723.2l44.8-44.8c12.8-12.8 32-12.8 44.8 0s12.8 32 0 44.8L300.8 768l44.8 44.8c12.8 12.8 12.8 32 0 44.8-12.8 12.8-32 12.8-44.8 0L256 812.8l-44.8 44.8c-12.8 12.8-32 12.8-44.8 0-12.8-12.8-12.8-32 0-44.8L211.2 768l-44.8-44.8zM352 288H288v64c0 16-16 32-32 32s-32-16-32-32V288H160c-16 0-32-16-32-32s16-32 32-32h64V160c0-16 16-32 32-32s32 16 32 32v64h64c16 0 32 16 32 32s-16 32-32 32z m512 0h-192c-16 0-32-16-32-32s16-32 32-32h192c16 0 32 16 32 32s-16 32-32 32z" fill="" p-id="2446"></path><path d="M864 736h-192c-16 0-32-12.8-32-32 0-16 12.8-32 32-32h192c16 0 32 12.8 32 32s-12.8 32-32 32zM864 864h-192c-16 0-32-12.8-32-32 0-16 12.8-32 32-32h192c16 0 32 12.8 32 32s-12.8 32-32 32z" fill="" p-id="2447"></path></svg>