<?xml version="1.0" standalone="no"?><!DOCTYPE svg PUBLIC "-//W3C//DTD SVG 1.1//EN" "http://www.w3.org/Graphics/SVG/1.1/DTD/svg11.dtd"><svg t="1603349194379" class="icon" viewBox="0 0 1024 1024" version="1.1" xmlns="http://www.w3.org/2000/svg" p-id="4330" xmlns:xlink="http://www.w3.org/1999/xlink" width="128" height="128"><defs><style type="text/css"></style></defs><path d="M128.576 108.288C186.816 121.408 251.584 128 322.752 128c192.512 0 226.56-128 384.96-128 105.6 0 211.2 21.312 316.864 64v576c-83.904-42.688-190.208-64-318.912-64-193.024 0-226.496 128-386.048 128-63.68 0-127.36-7.68-191.04-22.976V960a64 64 0 0 1-128 0V64a64 64 0 0 1 128 0v44.288z m0 440.448A695.68 695.68 0 0 0 319.616 576c32 0 51.392-7.296 95.68-34.176l18.112-11.072C527.296 473.536 596.864 448 705.664 448c68.288 0 131.968 5.44 190.912 16.448V155.072A684.544 684.544 0 0 0 707.712 128c-31.296 0-50.56 7.232-94.4 33.92l-18.56 11.328C501.056 230.4 431.296 256 322.752 256 253.504 256 188.736 250.432 128.576 239.04v309.76z" p-id="4331"></path></svg>