<?xml version="1.0" standalone="no"?><!DOCTYPE svg PUBLIC "-//W3C//DTD SVG 1.1//EN" "http://www.w3.org/Graphics/SVG/1.1/DTD/svg11.dtd"><svg t="1630899529693" class="icon" viewBox="0 0 1024 1024" version="1.1" xmlns="http://www.w3.org/2000/svg" p-id="8286" xmlns:xlink="http://www.w3.org/1999/xlink" width="128" height="128"><defs><style type="text/css"></style></defs><path d="M1007.071573 394.808889a15.928889 15.928889 0 0 0 11.377778-25.6l-298.666667-262.257778c-10.808889-6.826667-25.6-3.413333-25.6 11.377778V284.444444H38.822684a34.702222 34.702222 0 0 0-38.684444 37.546667v36.408889a34.702222 34.702222 0 0 0 36.408889 36.408889zM17.204907 629.191111a15.928889 15.928889 0 0 0-11.377778 25.6l298.666667 262.257778c10.808889 6.826667 25.6 3.413333 25.6-11.377778V739.555556h655.36a34.702222 34.702222 0 0 0 36.408888-36.408889v-37.546667a34.702222 34.702222 0 0 0-36.408888-36.408889z" p-id="8287"></path></svg>