<?xml version="1.0" standalone="no"?><!DOCTYPE svg PUBLIC "-//W3C//DTD SVG 1.1//EN" "http://www.w3.org/Graphics/SVG/1.1/DTD/svg11.dtd"><svg t="1605597952751" class="icon" viewBox="0 0 1097 1024" version="1.1" xmlns="http://www.w3.org/2000/svg" p-id="2841" xmlns:xlink="http://www.w3.org/1999/xlink" width="137.125" height="128"><defs><style type="text/css"></style></defs><path d="M967.460571 222.256762V18.285714H132.36419v203.971048h307.882667v133.241905C189.976381 366.762667 1.536 416.085333 1.536 475.282286c0 59.196952 188.440381 108.519619 438.710857 119.783619v427.641905h219.331048V594.968381c249.319619-11.459048 436.809143-60.68419 436.809143-119.710476 0-59.001905-187.489524-108.251429-436.809143-119.661715v-133.363809h307.882666zM1002.081524 463.238095c0 38.912-145.700571 71.582476-342.503619 80.652191l-12.702476 0.536381h-1.414096l-11.922285 0.438857h-1.292191c-8.874667 0.292571-17.846857 0.560762-26.940952 0.755809h-0.560762l-12.190476 0.24381h-3.437715l-9.630476 0.146286h-60.952381l-9.508571-0.121905h-3.31581l-11.361524-0.24381h-1.267809c-13.482667-0.316952-26.745905-0.731429-39.838476-1.219047h-0.170667l-13.019428-0.585143c-197.778286-8.923429-344.429714-41.691429-344.429715-80.798476 0-39.131429 146.67581-71.801905 344.429715-80.822858v123.708953c34.328381 1.77981 70.826667 2.779429 108.714666 2.779428 38.473143 0 75.727238-0.999619 110.640762-2.876952v-123.245714c196.949333 9.045333 342.698667 41.71581 342.698667 80.65219z" fill="#607686" p-id="2842"></path></svg>