<?xml version="1.0" standalone="no"?><!DOCTYPE svg PUBLIC "-//W3C//DTD SVG 1.1//EN" "http://www.w3.org/Graphics/SVG/1.1/DTD/svg11.dtd"><svg t="1592905364393" class="icon" viewBox="0 0 1024 1024" version="1.1" xmlns="http://www.w3.org/2000/svg" p-id="6859" width="128" height="128" xmlns:xlink="http://www.w3.org/1999/xlink"><defs><style type="text/css"></style></defs><path d="M318.18 868.845v58.905h110.25v-58.905H318.18z m112.868-701.852c-62.427 0-113.319 51.096-113.319 113.374V489.78c0 62.278 50.892 113.322 113.319 113.322h15.321v92.76l92.81-92.76h324.499c62.279 0 113.17-51.044 113.17-113.322V280.366c0-62.278-50.891-113.374-113.17-113.374h-432.63v0.001z m58.2 170.867c-21.919 0-39.858 17.887-39.858 39.905 0 22.025 17.938 39.759 39.858 39.759 22.017 0 39.904-17.734 39.904-39.759 0-22.017-17.887-39.905-39.904-39.905z m340.418 0c21.92 0 39.905 17.887 39.905 39.905 0 22.025-17.985 39.759-39.905 39.759-22.021 0-39.908-17.734-39.908-39.759 0-22.017 17.888-39.905 39.908-39.905z m-174.241 0c-21.97 0-39.807 17.887-39.807 39.905 0 22.025 17.837 39.759 39.807 39.759 22.119 0 39.857-17.734 39.857-39.759 0-22.017-17.738-39.905-39.857-39.905zM180.724 64.759h386.021c32.648 0 61.319 17.888 76.788 44.442H431.048c-45.802 0-87.473 18.09-118.26 47.517H160.87v679.929h428.75v-175.6h66.01v209.361c0 48.826-40.011 88.833-88.885 88.833H180.724c-48.877 0-88.833-40.007-88.833-88.833V153.643c0-48.877 39.956-88.884 88.833-88.884z" p-id="6860"></path></svg>