<?xml version="1.0" standalone="no"?><!DOCTYPE svg PUBLIC "-//W3C//DTD SVG 1.1//EN" "http://www.w3.org/Graphics/SVG/1.1/DTD/svg11.dtd"><svg t="1592906036722" class="icon" viewBox="0 0 1024 1024" version="1.1" xmlns="http://www.w3.org/2000/svg" p-id="11610" width="128" height="128" xmlns:xlink="http://www.w3.org/1999/xlink"><defs><style type="text/css"></style></defs><path d="M810.666667 405.333333h-102.464a153.6 153.6 0 0 1-153.6-153.6V170.666667H298.666667a85.333333 85.333333 0 0 0-85.333334 85.333333v512a85.333333 85.333333 0 0 0 85.333334 85.333333h426.666666a85.333333 85.333333 0 0 0 85.333334-85.333333V405.333333z m-14.229334-85.333333l-149.034666-149.333333h-7.466667v71.765333A77.568 77.568 0 0 0 717.504 320h78.933333zM298.666667 85.333333h348.736a85.333333 85.333333 0 0 1 60.416 25.045334l163.242666 163.605333A85.333333 85.333333 0 0 1 896 334.250667V768a170.666667 170.666667 0 0 1-170.666667 170.666667H298.666667a170.666667 170.666667 0 0 1-170.666667-170.666667V256a170.666667 170.666667 0 0 1 170.666667-170.666667z m85.333333 347.050667a42.666667 42.666667 0 0 1 58.282667 15.616l106.666666 184.746667a42.666667 42.666667 0 0 1-73.898666 42.666666l-106.666667-184.746666A42.666667 42.666667 0 0 1 384 432.384z m256 0A42.666667 42.666667 0 0 1 655.616 490.666667l-106.666667 184.746666a42.666667 42.666667 0 0 1-73.898666-42.666666l106.666666-184.746667A42.666667 42.666667 0 0 1 640 432.384z"></path></svg>