<?xml version="1.0" standalone="no"?><!DOCTYPE svg PUBLIC "-//W3C//DTD SVG 1.1//EN" "http://www.w3.org/Graphics/SVG/1.1/DTD/svg11.dtd"><svg t="1592904754182" class="icon" viewBox="0 0 1664 1024" version="1.1" xmlns="http://www.w3.org/2000/svg" p-id="5627" width="208" height="128" xmlns:xlink="http://www.w3.org/1999/xlink"><defs><style type="text/css"></style></defs><path d="M1254.341987 677.111724V346.886996a85.756034 85.756034 0 0 1 16.63923-52.477572l230.389345-227.829463C1576.887069-7.656606 1663.923044-29.4156 1663.923044 51.220671v921.557378c0 80.636271-87.035975 58.877277-162.552482-15.35929L1270.981217 729.589296a85.756034 85.756034 0 0 1-16.63923-52.477572zM1151.946722 895.981601a127.99408 127.99408 0 0 1-127.99408 127.99408H127.99408a127.99408 127.99408 0 0 1-127.99408-127.99408V128.017119a127.99408 127.99408 0 0 1 127.99408-127.99408h895.958562a127.99408 127.99408 0 0 1 127.99408 127.99408z" p-id="5628"></path></svg>