<?xml version="1.0" standalone="no"?><!DOCTYPE svg PUBLIC "-//W3C//DTD SVG 1.1//EN" "http://www.w3.org/Graphics/SVG/1.1/DTD/svg11.dtd"><svg t="1592905956485" class="icon" viewBox="0 0 1024 1024" version="1.1" xmlns="http://www.w3.org/2000/svg" p-id="9531" width="128" height="128" xmlns:xlink="http://www.w3.org/1999/xlink"><defs><style type="text/css"></style></defs><path d="M512 0C224.914286 0 0 152.685714 0 347.428571v329.142858c0 194.742857 224.914286 347.428571 512 347.428571s512-152.685714 512-347.428571V347.428571C1024 152.685714 799.085714 0 512 0z m0 109.714286c217.965714 0 402.285714 109.714286 402.285714 237.714285S729.965714 585.142857 512 585.142857 109.714286 476.525714 109.714286 347.428571 293.851429 109.714286 512 109.714286z m386.377143 468.114285C849.371429 676.571429 692.297143 750.994286 512 750.994286S174.628571 676.571429 125.622857 577.828571C219.428571 650.057143 356.205714 694.857143 512 694.857143s292.571429-44.8 386.377143-117.028572zM512 914.285714c-178.102857 0-333.531429-73.142857-384-169.508571 93.074286 71.497143 229.668571 115.931429 384 115.931428s291.474286-44.434286 384-115.931428C845.531429 841.142857 690.102857 914.285714 512 914.285714z" p-id="9532"></path><path d="M359.497143 343.405714a54.857143 54.857143 0 0 0 27.428571-7.314285L457.142857 295.497143v199.131428a54.857143 54.857143 0 0 0 109.714286 0V295.497143l70.217143 40.594286a54.857143 54.857143 0 0 0 54.857143-95.085715L539.428571 152.868571h-1.28a57.782857 57.782857 0 0 0-12.068571-4.937142 54.857143 54.857143 0 0 0-12.617143-1.645715h-3.657143a54.857143 54.857143 0 0 0-9.508571 1.097143l-3.657143 0.914286a52.48 52.48 0 0 0-12.068571 4.937143l-152.502858 88.137143a54.857143 54.857143 0 0 0 27.428572 102.4z"></path></svg>