<?xml version="1.0" standalone="no"?><!DOCTYPE svg PUBLIC "-//W3C//DTD SVG 1.1//EN" "http://www.w3.org/Graphics/SVG/1.1/DTD/svg11.dtd"><svg t="1619343565623" class="icon" viewBox="0 0 1024 1024" version="1.1" xmlns="http://www.w3.org/2000/svg" p-id="771" width="128" height="128" xmlns:xlink="http://www.w3.org/1999/xlink"><defs><style type="text/css"></style></defs><path d="M448.53 883.5c-2.96 0-5.87-0.03-8.72-0.1-105.67-2.31-184.34-44.31-219.6-79.58-24.47-24.47-61.76-104.88-68.04-207.06-5.38-87.5 11.23-214.83 120.9-324.5C470.17 75.15 914.31 64.4 933.13 64.04c7.12-0.41 14.08 2.65 19.13 7.71a26.352 26.352 0 0 1 7.72 19.14c-0.36 18.81-11.1 462.95-208.23 660.06C643.14 859.57 528.43 883.5 448.53 883.5z m457.5-765.52c-100 5.73-440.55 36.39-595.7 191.54C128.85 491 228.66 737.74 257.46 766.55c30.61 30.6 99.21 62.32 183.49 64.16 69.98 1.33 174.06-17.55 273.54-117.02 155.15-155.15 185.81-495.7 191.54-595.71z" fill="#333333" p-id="772"></path><path d="M90.37 960c-6.74 0-13.49-2.57-18.63-7.72-10.29-10.29-10.29-26.98 0-37.26l612.65-612.65c10.29-10.29 26.97-10.29 37.26 0s10.29 26.98 0 37.26L109 952.28c-5.14 5.15-11.89 7.72-18.63 7.72z" fill="#333333" p-id="773"></path><path d="M527.83 525.5c-14.55 0-26.35-11.8-26.35-26.35V300.21c0-14.55 11.8-26.35 26.35-26.35s26.35 11.8 26.35 26.35v198.94c0.01 14.55-11.79 26.35-26.35 26.35zM565.45 671H379.37c-14.55 0-26.35-11.8-26.35-26.35s11.8-26.35 26.35-26.35h186.07c14.55 0 26.35 11.8 26.35 26.35C591.8 659.2 580 671 565.45 671z" fill="#333333" p-id="774"></path></svg>