<?xml version="1.0" standalone="no"?><!DOCTYPE svg PUBLIC "-//W3C//DTD SVG 1.1//EN" "http://www.w3.org/Graphics/SVG/1.1/DTD/svg11.dtd"><svg t="1629971418893" class="icon" viewBox="0 0 1024 1024" version="1.1" xmlns="http://www.w3.org/2000/svg" p-id="3622" xmlns:xlink="http://www.w3.org/1999/xlink" width="128" height="128"><defs><style type="text/css"></style></defs><path d="M420.352 994.816H143.36c-49.664 0-90.112-38.912-90.112-86.016v-814.08c0-47.616 40.448-86.016 90.112-86.016h663.552c49.664 0 90.112 38.912 90.112 86.016v358.912c0 14.336-11.264 25.6-25.6 25.6s-25.6-11.264-25.6-25.6V94.72c0-19.456-17.408-34.816-38.912-34.816H143.36c-21.504 0-38.912 15.872-38.912 34.816v813.568c0 19.456 17.408 34.816 38.912 34.816h276.992c14.336 0 25.6 11.264 25.6 25.6s-11.776 26.112-25.6 26.112z" p-id="3623"></path><path d="M700.416 773.12c-76.8 0-139.264-62.464-139.264-139.264s62.464-139.264 139.264-139.264 139.264 62.464 139.264 139.264-62.464 139.264-139.264 139.264z m0-226.816c-48.64 0-88.064 39.424-88.064 88.064s39.424 88.064 88.064 88.064 88.064-39.424 88.064-88.064-39.424-88.064-88.064-88.064zM846.336 1018.88H552.96c-42.496 0-76.8-34.304-76.8-76.8v-60.928c0-42.496 34.304-76.8 76.8-76.8h293.376c42.496 0 76.8 34.304 76.8 76.8V942.08c0 42.496-34.816 76.8-76.8 76.8zM552.96 855.552c-14.336 0-25.6 11.264-25.6 25.6V942.08c0 14.336 11.264 25.6 25.6 25.6h293.376c14.336 0 25.6-11.264 25.6-25.6v-60.928c0-14.336-11.264-25.6-25.6-25.6H552.96z" p-id="3624"></path><path d="M670.208 751.104h51.2v91.648h-51.2zM640 278.528H231.424c-14.336 0-25.6-11.264-25.6-25.6s11.264-25.6 25.6-25.6H640c13.824 0 25.6 11.264 25.6 25.6 0 13.824-11.264 25.6-25.6 25.6zM520.704 437.76H231.424c-14.336 0-25.6-11.264-25.6-25.6s11.264-25.6 25.6-25.6h288.768c14.336 0 25.6 11.776 25.6 25.6 0.512 14.336-11.264 25.6-25.088 25.6zM449.536 597.504H231.424c-14.336 0-25.6-11.776-25.6-25.6 0-14.336 11.264-25.6 25.6-25.6h217.6c13.824 0 25.6 11.264 25.6 25.6 0.512 14.336-11.264 25.6-25.088 25.6z" p-id="3625"></path></svg>